<svg width="17" height="15" viewBox="0 0 17 15" fill="none" xmlns="http://www.w3.org/2000/svg">
<g clip-path="url(#clip0_992_5408)">
<path d="M15.2252 9.84578C14.2175 9.84578 13.228 9.70215 12.2904 9.41977C11.831 9.27695 11.2662 9.40797 10.9858 9.67043L9.13518 10.9436C6.98896 9.89953 5.66693 8.69508 4.53692 6.75379L5.89285 5.11113C6.24514 4.79051 6.37149 4.32215 6.2201 3.8827C5.90893 3.02371 5.75085 2.12242 5.75085 1.20367C5.7509 0.539961 5.15842 0 4.4302 0H1.40758C0.679362 0 0.0868835 0.539961 0.0868835 1.20363C0.0868835 8.81105 6.87782 15 15.2252 15C15.9534 15 16.5459 14.46 16.5459 13.7964V11.0494C16.5458 10.3857 15.9533 9.84578 15.2252 9.84578Z" fill="#C5C5C5"/>
</g>
<defs>
<clipPath id="clip0_992_5408">
<rect width="16.4589" height="15" fill="white" transform="translate(0.0868835)"/>
</clipPath>
</defs>
</svg>
