<svg width="18" height="16" viewBox="0 0 18 16" fill="none" xmlns="http://www.w3.org/2000/svg">
<g clip-path="url(#clip0_992_5412)">
<path d="M8.86619 0C6.35815 0 4.30795 1.86847 4.30795 4.1542C4.30795 6.43993 6.35815 8.3084 8.86619 8.3084C11.3742 8.3084 13.4244 6.43993 13.4244 4.1542C13.4244 1.86847 11.3742 0 8.86619 0Z" fill="#C5C5C5"/>
<path d="M16.6889 11.6285C16.5694 11.3564 16.4102 11.1024 16.2311 10.8666C15.3154 9.63302 13.9022 8.8167 12.3098 8.61715C12.1108 8.59903 11.8918 8.63528 11.7326 8.74413C10.8965 9.30649 9.90131 9.59673 8.86623 9.59673C7.83114 9.59673 6.83591 9.30649 5.9999 8.74413C5.84064 8.63528 5.62169 8.58087 5.42265 8.61715C3.83025 8.8167 2.39711 9.63302 1.50139 10.8666C1.32225 11.1024 1.16299 11.3745 1.04359 11.6285C0.983889 11.7374 1.00378 11.8643 1.06348 11.9732C1.22273 12.2271 1.42176 12.4811 1.60091 12.6988C1.87957 13.0435 2.17815 13.3519 2.51655 13.6421C2.79521 13.8961 3.11368 14.1319 3.43219 14.3677C5.00467 15.438 6.89565 16.0004 8.84634 16.0004C10.797 16.0004 12.688 15.438 14.2605 14.3677C14.579 14.1501 14.8974 13.8961 15.1761 13.6421C15.4946 13.3519 15.8131 13.0435 16.0918 12.6988C16.2908 12.463 16.47 12.2271 16.6292 11.9732C16.7287 11.8643 16.7486 11.7373 16.6889 11.6285Z" fill="#C5C5C5"/>
</g>
<defs>
<clipPath id="clip0_992_5412">
<rect width="17.5562" height="16" fill="white" transform="translate(0.0868835)"/>
</clipPath>
</defs>
</svg>
