<svg width="38" height="35" viewBox="0 0 38 35" fill="none" xmlns="http://www.w3.org/2000/svg">
<path d="M37.1714 18C37.1714 27.07 29.0885 34.5 19.0179 34.5C8.94739 34.5 0.864502 27.07 0.864502 18C0.864502 8.92997 8.94739 1.5 19.0179 1.5C29.0885 1.5 37.1714 8.92997 37.1714 18Z" stroke="#45C436"/>
<g clip-path="url(#clip0_4615_5059)">
<path d="M19.0207 13.8921C16.5314 13.8921 14.5161 15.7308 14.5161 17.9974C14.5161 20.2661 16.5336 22.1028 19.0207 22.1028C21.5101 22.1028 23.5254 20.2641 23.5254 17.9974C23.5254 15.7288 21.5079 13.8921 19.0207 13.8921ZM19.0207 20.6621C17.4048 20.6621 16.0969 19.4694 16.0969 17.9974C16.0969 16.5254 17.4056 15.3328 19.0207 15.3328C20.6359 15.3328 21.9446 16.5254 21.9446 17.9974C21.9453 19.4694 20.6366 20.6621 19.0207 20.6621Z" fill="#45C436"/>
<path d="M22.637 10.0515C21.0218 9.98281 17.0212 9.98615 15.4046 10.0515C13.984 10.1121 12.7309 10.4248 11.7207 11.3455C10.0324 12.8841 10.2482 14.9575 10.2482 17.9981C10.2482 21.1101 10.058 23.1355 11.7207 24.6508C13.4156 26.1948 15.7235 25.9928 19.0204 25.9928C22.4029 25.9928 23.5704 25.9948 24.7664 25.5728C26.3925 24.9975 27.62 23.6728 27.74 21.2935C27.8161 19.8208 27.8117 16.1755 27.74 14.7021C27.5951 11.8935 25.9412 10.1901 22.637 10.0515ZM25.1936 23.6328C24.0868 24.6415 22.5514 24.5515 18.9992 24.5515C15.3417 24.5515 13.875 24.6008 12.8048 23.6228C11.5722 22.5048 11.7953 20.7095 11.7953 17.9875C11.7953 14.3041 11.3805 11.6515 15.4368 11.4621C16.3687 11.4321 16.643 11.4221 18.989 11.4221L19.0219 11.4421C22.9201 11.4421 25.9785 11.0701 26.1621 14.7661C26.2038 15.6095 26.2133 15.8628 26.2133 17.9975C26.2126 21.2921 26.2814 22.6368 25.1936 23.6328Z" fill="#45C436"/>
<path d="M23.7039 14.6892C24.2852 14.6892 24.7565 14.2597 24.7565 13.7298C24.7565 13.2 24.2852 12.7705 23.7039 12.7705C23.1225 12.7705 22.6512 13.2 22.6512 13.7298C22.6512 14.2597 23.1225 14.6892 23.7039 14.6892Z" fill="#45C436"/>
</g>
<defs>
<clipPath id="clip0_4615_5059">
<rect width="17.5562" height="16" fill="white" transform="translate(10.2397 10)"/>
</clipPath>
</defs>
</svg>
