<svg width="491" height="341" viewBox="0 0 491 341" fill="none" xmlns="http://www.w3.org/2000/svg">
<path d="M361.036 161.005L357.944 162.927L345.629 149.526L348.721 147.604L353.664 152.984L361.37 148.192L356.426 142.813L359.496 140.905L371.81 154.305L368.741 156.214L363.833 150.873L356.127 155.664L361.036 161.005ZM381.847 148.065L378.755 149.987L368.903 139.266L363.494 142.63L361.031 139.95L374.897 131.328L377.36 134.008L371.995 137.344L381.847 148.065ZM391.848 141.846L388.757 143.768L376.442 130.367L379.533 128.445L390.884 131.585L390.396 121.691L393.377 119.837L405.692 133.238L402.601 135.16L394.297 126.124L394.989 133.786L392.405 135.393L383.544 132.81L391.848 141.846ZM395.589 118.462L398.68 116.54L408.532 127.26L418.556 121.027L421.019 123.707L407.904 131.863L395.589 118.462Z" fill="#45C436" fill-opacity="0.29"/>
<path d="M428.794 194.524L416.275 192.161L414.994 190.1L418.908 176.076L421.167 174.63L433.686 176.994L434.952 179.105L433.981 182.586L430.43 181.916L430.919 180.163L422.002 178.479L419.067 188.997L427.984 190.681L428.466 188.953L432.017 189.623L431.039 193.129L428.794 194.524ZM447.132 197.987L434.613 195.623L433.332 193.562L434.311 190.056L437.887 190.732L437.405 192.46L446.322 194.143L447.293 190.662L436.563 188.636L435.149 187.051L437.246 179.538L439.505 178.093L452.024 180.457L453.29 182.568L452.319 186.049L448.768 185.378L449.257 183.625L440.34 181.941L439.362 185.448L450.067 187.469L451.341 189.555L449.377 196.592L447.132 197.987ZM465.719 201.497L453.201 199.133L451.92 197.072L452.898 193.566L456.475 194.241L455.993 195.969L464.909 197.653L465.881 194.172L455.15 192.146L453.737 190.561L455.833 183.048L458.092 181.603L470.611 183.966L471.878 186.077L470.907 189.558L467.355 188.888L467.844 187.135L458.928 185.451L457.95 188.957L468.654 190.978L469.928 193.064L467.964 200.101L465.719 201.497Z" fill="#45C436" fill-opacity="0.29"/>
<path d="M50.0794 252.528L46.8716 254.248L43.4961 249.99L44.4428 245.417L38.9739 244.285L35.5661 239.985L38.7739 238.265L41.0511 241.138L46.4971 242.282L48.101 241.422L49.0476 236.849L46.7703 233.976L49.9552 232.268L53.363 236.567L52.4393 241.128L57.8852 242.272L61.2607 246.531L58.0759 248.239L55.8148 245.386L50.3621 244.275L48.7582 245.135L47.8183 249.675L50.0794 252.528ZM66.5308 243.704L63.323 245.425L52.0175 231.162L55.2252 229.441L66.291 233.35L66.4982 223.395L69.5914 221.736L80.8969 235.999L77.6892 237.719L70.066 228.102L70.2176 235.832L67.5368 237.27L58.9076 234.087L66.5308 243.704ZM71.8869 220.505L75.0947 218.785L84.1391 230.195L94.5414 224.616L96.8025 227.468L83.1925 234.768L71.8869 220.505Z" fill="#45C436" fill-opacity="0.29"/>
<path d="M15.2447 161.142L24.056 158.975L22.1817 153.819L13.3704 155.986L15.2447 161.142ZM18.3449 169.67L14.8102 170.539L8.59209 153.434L22.7054 149.963L25.0782 151.269L28.1873 159.822L27.067 161.961L16.4883 164.563L18.3449 169.67ZM42.1222 163.821L38.6128 164.684L36.2677 158.233L28.5276 155.479L26.2091 149.101L29.7437 148.232L31.5381 153.168L36.9541 154.977L40.3495 151L38.5551 146.064L42.0645 145.201L44.3829 151.579L39.7771 157.37L42.1222 163.821ZM59.2773 159.601L55.7426 160.471L50.7681 146.787L44.5825 148.309L43.3389 144.888L59.1943 140.988L60.4379 144.409L54.3028 145.918L59.2773 159.601ZM70.7136 156.788L67.1789 157.658L60.9608 140.553L64.4954 139.684L66.9916 146.55L75.8029 144.383L73.3068 137.516L76.8162 136.653L83.0343 153.758L79.5249 154.621L77.0465 147.804L68.2352 149.971L70.7136 156.788ZM87.8384 148.849L96.6498 146.682L92.9189 136.419L84.1076 138.586L87.8384 148.849ZM99.6607 149.668L87.2895 152.711L84.9345 151.454L79.96 137.77L81.0714 135.606L93.4426 132.563L95.8154 133.87L100.79 147.554L99.6607 149.668ZM119.771 144.721L116.262 145.585L103.302 136.341L107.451 147.752L103.916 148.621L97.6978 131.517L101.232 130.647L114.183 139.867L110.044 128.48L113.553 127.617L119.771 144.721Z" fill="#45C436" fill-opacity="0.29"/>
<path d="M99.249 83.7729L87.7198 78.3522L87.12 76.1156L95.4284 64.1589L98.1053 63.4062L109.635 68.827L110.205 71.1062L108.142 74.0741L104.872 72.5364L105.91 71.0418L97.6988 67.1809L91.4674 76.1484L99.6791 80.0093L100.703 78.5361L103.973 80.0738L101.896 83.063L99.249 83.7729ZM125.558 96.1428L114.029 90.7221L113.429 88.4855L115.506 85.4963L118.8 87.0451L117.777 88.5184L125.988 92.3792L128.051 89.4114L118.168 84.7651L117.287 82.9342L121.738 76.5288L124.415 75.7762L135.944 81.1969L136.514 83.4762L134.452 86.444L131.181 84.9063L132.22 83.4117L124.008 79.5508L121.931 82.54L131.79 87.1753L132.375 89.4332L128.206 95.4329L125.558 96.1428ZM132.818 99.5561L129.524 98.0073L139.909 83.0614L143.204 84.6102L139.034 90.6099L147.246 94.4708L151.415 88.4711L154.686 90.0088L144.3 104.955L141.03 103.417L145.169 97.46L136.957 93.5991L132.818 99.5561ZM154.879 100.042L163.091 103.903L166.221 99.3982L161.28 97.075L155.917 98.5478L154.879 100.042ZM149.701 107.494L146.407 105.945L153.662 95.5044L161.71 93.3114L171.569 97.9467L161.183 112.893L157.913 111.355L161.013 106.892L152.802 103.032L149.701 107.494ZM172.003 108.094L180.214 111.954L183.345 107.449L175.133 103.588L172.003 108.094ZM178.307 120.944L175.036 119.406L176.06 117.933L175.467 115.642L174.843 113.395L169.926 111.083L166.825 115.545L163.531 113.996L173.916 99.0505L187.069 105.235L187.639 107.514L182.446 114.987L179.784 115.718L180.384 117.955L178.307 120.944ZM189.121 116.142L197.333 120.003L200.463 115.498L192.252 111.637L189.121 116.142ZM183.943 123.594L180.649 122.045L191.035 107.099L204.187 113.283L204.757 115.562L199.565 123.035L196.903 123.767L187.044 119.131L183.943 123.594Z" fill="#45C436" fill-opacity="0.29"/>
<path d="M319.422 112.521L320.558 107.99L316.256 102.086L311.358 104.501L309.215 101.559L317.353 97.5458L324.872 107.863L323.198 114.658L318.301 117.072L310.227 115.084L308.083 112.142L311.348 110.532L312.42 112.003L317.79 113.326L319.422 112.521ZM328.097 102.274L336.235 98.2606L333.004 93.827L328.107 96.2417L327.025 100.803L328.097 102.274ZM333.441 109.607L330.176 111.217L322.688 100.942L324.331 94.1049L334.102 89.287L344.821 103.996L341.579 105.594L338.379 101.202L330.241 105.215L333.441 109.607ZM352.909 96.0086L354.045 91.478L347.598 82.6319L350.84 81.0336L358.358 91.3506L356.685 98.1454L351.788 100.56L343.714 98.5717L336.195 88.2547L339.46 86.6449L345.907 95.4911L351.277 96.8135L352.909 96.0086ZM361.345 85.8791L369.483 81.8661L366.252 77.4325L361.355 79.8472L360.273 84.4082L361.345 85.8791ZM366.689 93.2124L363.424 94.8222L355.936 84.5472L357.579 77.7104L367.35 72.8924L378.069 87.601L374.827 89.1993L371.627 84.8078L363.489 88.8208L366.689 93.2124ZM393.431 80.026L382.004 85.6604L379.339 85.0039L377.195 82.0622L380.46 80.4524L381.516 81.9023L389.655 77.8892L387.526 74.9685L377.732 79.7979L375.358 79.5407L370.764 73.2371L371.285 70.9518L382.712 65.3175L385.408 66.0159L387.537 68.9366L384.295 70.5349L383.223 69.0641L375.085 73.0771L377.229 76.0188L386.999 71.2009L389.68 71.8783L393.983 77.7828L393.431 80.026ZM410.396 71.6603L398.97 77.2947L396.304 76.6382L387.729 64.8714L388.251 62.5861L399.677 56.9517L402.374 57.6502L404.502 60.5709L401.261 62.1692L400.189 60.6984L392.05 64.7114L398.482 73.5365L406.62 69.5235L405.564 68.0737L408.805 66.4754L410.949 69.4171L410.396 71.6603ZM412.019 60.8916L420.158 56.8785L416.927 52.445L408.788 56.458L412.019 60.8916ZM428.743 62.6135L425.502 64.2118L424.445 62.762L421.726 62.075L419.037 61.4301L414.163 63.8333L417.364 68.2248L414.099 69.8347L403.38 55.1261L416.415 48.6983L419.111 49.3968L424.471 56.7511L423.934 59.0154L426.599 59.6718L428.743 62.6135ZM434.329 59.8591L431.064 61.4689L420.345 46.7604L423.61 45.1506L434.329 59.8591ZM434.587 49.7635L442.725 45.7505L439.494 41.3169L431.356 45.3299L434.587 49.7635ZM439.931 57.0968L436.666 58.7066L425.947 43.998L438.983 37.5703L441.679 38.2687L447.039 45.623L446.501 47.8873L436.731 52.7052L439.931 57.0968ZM461.683 46.3712L458.418 47.981L449.843 36.2141L444.13 39.0313L441.986 36.0895L456.63 28.8684L458.774 31.8101L453.107 34.6043L461.683 46.3712Z" fill="#45C436" fill-opacity="0.29"/>
<path d="M437.965 274.513L445.671 269.722L441.959 265.682L434.253 270.474L437.965 274.513ZM444.105 281.194L441.014 283.117L428.699 269.716L441.042 262.041L443.814 262.453L449.972 269.153L449.68 271.441L440.428 277.193L444.105 281.194ZM459.953 271.34L456.862 273.262L444.547 259.861L447.638 257.939L452.582 263.319L460.288 258.527L455.344 253.148L458.413 251.239L470.728 264.64L467.659 266.549L462.751 261.207L455.045 265.999L459.953 271.34ZM469.877 254.67L477.583 249.879L473.871 245.839L466.165 250.631L469.877 254.67ZM476.017 261.352L472.926 263.274L460.611 249.873L472.954 242.198L475.726 242.61L481.884 249.311L481.592 251.598L472.34 257.35L476.017 261.352Z" fill="#45C436" fill-opacity="0.29"/>
<path d="M159.397 37.5358L148.578 44.263L145.841 43.8894L135.989 33.1687L136.263 30.8622L147.082 24.1349L149.855 24.5468L152.3 27.2079L149.231 29.1162L147.999 27.7761L140.294 32.5676L147.683 40.6081L155.388 35.8166L154.175 34.4957L157.244 32.5873L159.707 35.2675L159.397 37.5358ZM159.484 24.8771L155.789 20.8568L158.88 18.9348L162.575 22.955L167.211 20.0719L169.674 22.7521L165.038 25.6352L168.732 29.6554L165.641 31.5775L161.947 27.5572L157.332 30.4266L154.869 27.7465L159.484 24.8771ZM172.701 16.6584L169.007 12.6381L172.098 10.7161L175.792 14.7363L180.429 11.8532L182.892 14.5334L178.255 17.4165L181.95 21.4367L178.859 23.3588L175.164 19.3385L170.549 22.2079L168.086 19.5278L172.701 16.6584Z" fill="#45C436" fill-opacity="0.29"/>
<path d="M46.1389 323.13L49.23 321.208L59.082 331.928L69.1061 325.695L71.5691 328.376L58.4538 336.531L46.1389 323.13ZM60.8011 314.013L63.8923 312.091L73.7442 322.811L81.45 318.02L71.5981 307.299L74.6672 305.391L85.7682 317.471L85.4586 319.739L74.6396 326.466L71.9022 326.093L60.8011 314.013ZM85.9104 308.959L93.6162 304.168L89.9041 300.128L85.2674 303.011L84.6789 307.619L85.9104 308.959ZM92.0502 315.64L88.9591 317.562L80.3562 308.201L81.2588 301.292L90.5102 295.54L102.825 308.941L99.756 310.849L96.0791 306.848L88.3733 311.639L92.0502 315.64Z" fill="#45C436" fill-opacity="0.29"/>
</svg>
