<svg width="84" height="79" viewBox="0 0 84 79" fill="none" xmlns="http://www.w3.org/2000/svg">
<path opacity="0.1" d="M23.7359 6.71849C23.7359 2.30922 27.1186 0.522169 31.2912 2.7268C35.4638 4.93144 38.8464 10.2929 38.8464 14.7022C38.8464 19.1115 35.4638 20.8985 31.2912 18.6939C27.1186 16.4893 23.7359 11.1278 23.7359 6.71849Z" fill="url(#paint0_linear_873_6263)"/>
<path opacity="0.3" d="M20.4091 8.4627C20.4091 4.05343 23.7917 2.26637 27.9643 4.47101C32.1373 6.67564 35.5199 12.0375 35.5199 16.4464C35.5199 20.8553 32.1373 22.6427 27.9647 20.4381C23.7917 18.2335 20.4091 12.872 20.4091 8.4627Z" fill="url(#paint1_linear_873_6263)"/>
<path opacity="0.48" d="M17.0825 10.2068C17.0825 5.79757 20.4652 4.01051 24.6378 6.21515C28.8103 8.41978 32.1934 13.7816 32.1934 18.1906C32.1934 22.5995 28.8107 24.3869 24.6381 22.1822C20.4656 19.9776 17.0825 14.6161 17.0825 10.2068Z" fill="url(#paint2_linear_873_6263)"/>
<path d="M17.0598 36.1677C16.4143 35.8266 16.4143 35.2736 17.0598 34.9323C17.7054 34.5913 18.7523 34.5913 19.3979 34.9323C20.0435 35.2733 20.0435 35.8263 19.3979 36.1677C18.7523 36.5087 17.7054 36.5087 17.0598 36.1677Z" fill="url(#paint3_linear_873_6263)"/>
<path d="M17.0598 36.0935C17.7054 36.4345 18.7523 36.4345 19.3979 36.0935C19.7028 35.9322 19.862 35.7239 19.8787 35.5129C19.8977 35.7487 19.7385 35.9876 19.3979 36.1677C18.7523 36.5087 17.7054 36.5087 17.0598 36.1677C16.7192 35.9876 16.56 35.7487 16.579 35.5129C16.5957 35.7239 16.7549 35.9325 17.0598 36.0935Z" fill="white"/>
<path d="M17.0598 39.106C16.4143 38.765 16.4143 38.212 17.0598 37.8706C17.7054 37.5296 18.7523 37.5296 19.3979 37.8706C20.0435 38.2116 20.0435 38.7647 19.3979 39.106C18.7523 39.447 17.7054 39.447 17.0598 39.106Z" fill="url(#paint4_linear_873_6263)"/>
<path d="M17.0598 42.0958C16.4143 41.7548 16.4143 41.2018 17.0598 40.8604C17.7054 40.5194 18.7523 40.5194 19.3979 40.8604C20.0435 41.2014 20.0435 41.7545 19.3979 42.0958C18.7523 42.4368 17.7054 42.4368 17.0598 42.0958Z" fill="url(#paint5_linear_873_6263)"/>
<path d="M19.8837 35.55V34.0219C19.8837 34.2455 19.7223 34.4688 19.3995 34.6393C18.7539 34.9803 17.707 34.9803 17.0614 34.6393C16.7483 34.4739 16.5888 34.2588 16.5791 34.042V27.5748H19.8837V46.6215C19.8837 47.4566 19.144 48.1336 18.2314 48.1336C17.3188 48.1336 16.5791 47.4566 16.5791 46.6215V41.4577C16.5691 41.6878 16.729 41.9199 17.0614 42.0955C17.707 42.4365 18.7539 42.4365 19.3995 42.0955C19.7215 41.9253 19.8829 41.7024 19.8837 41.4795V41.4778V41.4774V39.9494C19.8837 40.1726 19.7223 40.3962 19.3995 40.5667C18.7539 40.9077 17.707 40.9077 17.0614 40.5667C16.7483 40.4013 16.5888 40.1863 16.5791 39.9695V38.4676C16.5691 38.698 16.729 38.9298 17.0614 39.1054C17.707 39.4464 18.7539 39.4464 19.3995 39.1054C19.7215 38.9352 19.8829 38.7123 19.8837 38.4894V38.4877V38.4873V36.9593C19.8837 37.1829 19.7223 37.4061 19.3995 37.5766C18.7539 37.9176 17.707 37.9176 17.0614 37.5766C16.7483 37.4112 16.5888 37.1961 16.5791 36.9794V35.5292C16.5691 35.7593 16.729 35.9914 17.0614 36.167C17.707 36.508 18.7539 36.508 19.3995 36.167C19.7215 35.9968 19.8829 35.7739 19.8837 35.551V35.55Z" fill="url(#paint6_linear_873_6263)"/>
<path d="M17.0598 39.0319C17.7054 39.3729 18.7523 39.3729 19.3979 39.0319C19.7028 38.8706 19.862 38.6623 19.8787 38.4513C19.8977 38.6871 19.7385 38.926 19.3979 39.1061C18.7523 39.4471 17.7054 39.4471 17.0598 39.1061C16.7192 38.926 16.56 38.6871 16.579 38.4513C16.5957 38.6623 16.7549 38.8706 17.0598 39.0319Z" fill="white"/>
<path d="M17.0598 42.0216C17.7054 42.3626 18.7523 42.3626 19.3979 42.0216C19.7028 41.8603 19.862 41.652 19.8787 41.441C19.8977 41.6769 19.7385 41.9158 19.3979 42.0958C18.7523 42.4368 17.7054 42.4368 17.0598 42.0958C16.7192 41.9158 16.56 41.6769 16.579 41.441C16.5957 41.652 16.7549 41.8603 17.0598 42.0216Z" fill="white"/>
<path opacity="0.48" d="M17.059 34.6389C17.7046 34.9799 18.7515 34.9799 19.3971 34.6389C19.7199 34.4684 19.8813 34.2451 19.8813 34.0215V35.5496V35.55V35.5517C19.8806 35.7746 19.7192 35.9975 19.3971 36.1677C18.7515 36.5087 17.7046 36.5087 17.059 36.1677C16.7266 35.992 16.5667 35.7599 16.5767 35.5299V34.042C16.586 34.2584 16.7459 34.4738 17.059 34.6389Z" fill="url(#paint7_linear_873_6263)"/>
<path opacity="0.48" d="M17.059 37.5773C17.7046 37.9183 18.7515 37.9183 19.3971 37.5773C19.7199 37.4068 19.8813 37.1832 19.8813 36.96V38.488V38.4884V38.4901C19.8806 38.713 19.7192 38.9359 19.3971 39.1061C18.7515 39.4471 17.7046 39.4471 17.059 39.1061C16.7266 38.9304 16.5667 38.6983 16.5767 38.4683V36.9804C16.586 37.1968 16.7459 37.4119 17.059 37.5773Z" fill="url(#paint8_linear_873_6263)"/>
<path opacity="0.48" d="M17.059 40.5671C17.7046 40.9081 18.7515 40.9081 19.3971 40.5671C19.7199 40.3966 19.8813 40.173 19.8813 39.9497V41.4778V41.4781V41.4798C19.8806 41.7027 19.7192 41.9256 19.3971 42.0958C18.7515 42.4368 17.7046 42.4368 17.059 42.0958C16.7266 41.9202 16.5667 41.6881 16.5767 41.458V39.9701C16.586 40.1866 16.7459 40.4017 17.059 40.5671Z" fill="url(#paint9_linear_873_6263)"/>
<path d="M24.2027 25.2234C24.2789 25.1849 24.3544 25.1451 24.4273 25.1016L25.2354 20.9139L24.2217 15.355L21.4054 12.5456L18.5046 9.96827L13.8858 8.21559L13.7646 8.17203C13.5455 8.27242 13.3402 8.39562 13.1465 8.53549C11.9918 8.40345 10.8371 8.2714 9.68236 8.13935C9.87648 7.70374 10.1067 7.30623 10.3782 6.95842L9.82516 6.76035L11.8932 5.66994C11.9178 5.65667 11.9423 5.64374 11.9672 5.63081L12.0446 5.58997L12.0487 5.59167C13.8278 4.71363 16.2488 4.87256 18.9189 6.28321C24.379 9.16816 28.8055 16.184 28.8055 21.9536C28.8055 24.816 27.7152 26.8325 25.9506 27.7871V27.7878L25.9368 27.7949C25.9167 27.8058 25.8963 27.8164 25.8758 27.8269L23.6798 28.9765L23.7925 28.3929C23.5184 28.4126 23.2361 28.4143 22.9468 28.3983C23.5552 27.4161 24.3782 26.3271 24.2027 25.2234Z" fill="url(#paint10_linear_873_6263)"/>
<path d="M9.03787 11.74C9.03638 11.662 9.03229 11.5838 9.03229 11.5062C9.03229 10.1983 9.26546 9.07283 9.68161 8.13898C10.8363 8.27102 11.991 8.40307 13.1457 8.53512C12.0353 9.33795 11.3633 10.7765 11.3633 12.7375C11.3633 17.1467 14.746 22.5082 18.9185 24.7129C20.9766 25.8002 22.8401 25.9132 24.2023 25.223C24.3778 26.3267 23.5548 27.4158 22.9461 28.3976C22.0294 28.3465 21.0387 28.1138 20 27.6846L20.3261 28.0205C20.3261 28.0205 16.2142 26.715 16.1297 26.631C16.0453 26.5469 11.2573 22.1244 11.2573 22.1244L8.13121 15.9532L9.03787 11.74Z" fill="url(#paint11_linear_873_6263)"/>
<path opacity="0.5" d="M10.0163 13.6547C10.0163 9.24538 13.399 7.45833 17.5715 9.66296C21.7441 11.8676 25.1268 17.2291 25.1268 21.6384C25.1268 26.0476 21.7445 27.8347 17.5715 25.6301C13.399 23.4254 10.0163 18.0636 10.0163 13.6547Z" fill="url(#paint12_linear_873_6263)"/>
<path opacity="0.48" d="M10.6734 13.328C10.6734 8.91872 14.0561 7.13167 18.2287 9.3363C22.4013 11.5409 25.7839 16.9024 25.7839 21.3117C25.7839 25.721 22.4013 27.508 18.2287 25.3034C14.0561 23.0988 10.6734 17.7373 10.6734 13.328Z" fill="url(#paint13_linear_873_6263)"/>
<path d="M6.85898 12.6531C6.85898 18.4227 11.2852 25.4385 16.7456 28.3234C22.2056 31.2084 26.6318 28.87 26.6318 23.1004C26.6318 17.3309 22.2056 10.3147 16.7456 7.42977C11.2852 4.54516 6.85898 6.88354 6.85898 12.6531ZM9.18996 13.8847C9.18996 9.47547 12.5726 7.68842 16.7452 9.89305C20.9178 12.0977 24.3005 17.4592 24.3005 21.8685C24.3005 26.2777 20.9178 28.0648 16.7452 25.8601C12.5726 23.6555 9.18996 18.294 9.18996 13.8847Z" fill="#BCBEFF"/>
<path d="M6.85898 12.6531C6.85898 18.4227 11.2852 25.4385 16.7456 28.3234C22.2056 31.2084 26.6318 28.87 26.6318 23.1004C26.6318 17.3309 22.2056 10.3147 16.7456 7.42977C11.2852 4.54516 6.85898 6.88354 6.85898 12.6531ZM9.18996 13.8847C9.18996 9.47547 12.5726 7.68842 16.7452 9.89305C20.9178 12.0977 24.3005 17.4592 24.3005 21.8685C24.3005 26.2777 20.9178 28.0648 16.7452 25.8601C12.5726 23.6555 9.18996 18.294 9.18996 13.8847Z" fill="#BCBEFF"/>
<path d="M26.4816 23.2549C26.4816 17.4854 22.0554 10.4696 16.595 7.58461C13.2342 5.80879 10.2669 6.01468 8.48077 7.77894C10.248 5.87311 13.2885 5.60357 16.7452 7.4301C22.2056 10.3147 26.6318 17.3305 26.6318 23.1004C26.6318 25.3187 25.9754 27.0275 24.8598 28.1294C25.884 27.0247 26.4816 25.3718 26.4816 23.2549Z" fill="white"/>
<path d="M16.5953 26.0151C12.4227 23.8104 9.04007 18.4489 9.04007 14.0396C9.04007 12.3315 9.54955 11.0192 10.4142 10.1776C9.64104 11.0216 9.19031 12.2781 9.19031 13.8851C9.19031 18.2944 12.573 23.6559 16.7456 25.8605C19.3019 27.211 21.5596 27.0616 22.9271 25.7309C21.5786 27.2028 19.2472 27.4162 16.5953 26.0151Z" fill="white"/>
<path d="M45.8662 79.0001C45.2378 79.0001 44.6085 78.8518 44.0474 78.5553L2.55 56.6298C2.33951 56.5185 2.21344 56.3194 2.21344 56.0968C2.21344 55.8743 2.33914 55.6752 2.55 55.5639L28.3348 41.9403C28.369 41.9222 28.411 41.9222 28.4452 41.9403L71.7064 64.7976C71.9169 64.9089 72.0426 65.108 72.0426 65.3306C72.0426 65.5532 71.9169 65.7523 71.7064 65.8635L47.6851 78.5553C47.1243 78.8518 46.4955 79.0001 45.8662 79.0001ZM28.3902 42.1441L2.66045 55.7385C2.51876 55.8134 2.43434 55.9471 2.43434 56.0968C2.43434 56.2463 2.51876 56.3803 2.66045 56.4552L44.1582 78.3807C45.2117 78.9375 46.5211 78.9379 47.5751 78.3807L71.5964 65.689C71.738 65.6141 71.8225 65.4803 71.8225 65.3306C71.8225 65.1812 71.738 65.0471 71.5964 64.9722L28.3902 42.1441Z" fill="#42E8E0"/>
<path d="M29.7371 31.9871L35.5185 0.598397L35.0536 0.419386L35.752 0.0528539L35.7509 0.0565975C35.8863 -0.0261019 36.0782 -0.020997 36.2894 0.0906301L82.4934 24.5026C82.8727 24.703 83.1598 25.2173 83.0932 25.5767L77.2661 57.2148C77.2356 57.3795 77.1464 57.4888 77.0225 57.5367L77.0233 57.5371L76.3397 57.8985L76.2222 57.3145L76.2613 57.3254L30.337 33.0611C29.9577 32.8607 29.6706 32.3464 29.7371 31.9871Z" fill="url(#paint14_linear_873_6263)"/>
<path d="M82.236 25.3609L82.9958 25.0532C83.0809 25.2312 83.123 25.4184 83.0936 25.5763L77.2665 57.2144C77.236 57.3791 77.1467 57.4884 77.0229 57.5364L77.0236 57.5367L76.3401 57.8981L76.2226 57.3141L76.2617 57.325L73.9377 56.0971L82.236 25.3609Z" fill="url(#paint15_linear_873_6263)"/>
<path d="M29.6122 33.4416L75.8161 57.8535C76.1728 58.0421 76.4781 57.9332 76.5409 57.5952L82.368 25.9571C82.4346 25.5977 82.1475 25.0835 81.7682 24.883L35.5642 0.471089C35.2076 0.282548 34.9023 0.391453 34.8394 0.729397L29.0123 32.3675C28.9457 32.7272 29.2328 33.2411 29.6122 33.4416Z" fill="#24126A"/>
<g opacity="0.51">
<path opacity="0.51" d="M36.1681 2.49066L80.7053 26.0219L75.1824 55.8185L30.6754 32.3029L36.1681 2.49066Z" fill="#453C9E"/>
</g>
<path d="M0.568192 48.4204L3.08958 49.6255L28.3734 36.2667C28.7966 36.0431 29.5352 36.0713 30.0239 36.3293L73.6317 59.3697C74.0489 59.156 75.9515 58.3188 75.9515 58.3188L75.0285 60.5197C75.0285 60.5197 75.0255 60.5173 75.0248 60.517C74.9865 60.615 74.9047 60.7062 74.7667 60.779L48.1381 74.8481C47.7149 75.0717 46.9763 75.0438 46.4877 74.7855L1.8631 51.2084C1.66265 51.1025 1.53956 50.9742 1.48861 50.8442L1.48526 50.8463L0.568192 48.4204Z" fill="url(#paint16_linear_873_6263)"/>
<path d="M0.957937 48.7999L46.6922 72.9637C47.1928 73.2282 47.9499 73.2567 48.3835 73.0277L75.6748 58.6084C76.1084 58.3794 76.0541 57.9791 75.5532 57.7147L29.8193 33.5508C29.3188 33.2864 28.5616 33.2575 28.128 33.4869L0.836702 47.9062C0.403082 48.1352 0.457378 48.5354 0.957937 48.7999Z" fill="url(#paint17_linear_873_6263)"/>
<path d="M60.487 67.7367V67.2776C60.487 67.234 60.458 67.2139 60.4223 67.233L58.6532 68.1675C58.6175 68.1862 58.5885 68.2369 58.5885 68.2805V68.7396C58.5885 68.7832 58.6175 68.8032 58.6532 68.7842L60.4223 67.8496C60.458 67.8306 60.487 67.7802 60.487 67.7367Z" fill="#2842A2"/>
<path d="M57.8417 69.1344V68.6753C57.8417 68.6318 57.8127 68.6117 57.777 68.6307L56.0079 69.5653C55.9722 69.584 55.9432 69.6347 55.9432 69.6783V70.1374C55.9432 70.1809 55.9722 70.201 56.0079 70.182L57.777 69.2474C57.8127 69.2284 57.8417 69.178 57.8417 69.1344Z" fill="#2842A2"/>
<path d="M68.5599 57.2576L30.5549 37.1777C30.3016 37.0439 29.9893 37.0439 29.736 37.178L16.2023 44.3436C16.0078 44.4464 16.0082 44.7033 16.2027 44.8061L54.1902 64.8768C54.4434 65.0106 54.755 65.0106 55.0083 64.8768L68.5602 57.7205C68.7544 57.6177 68.7544 57.3604 68.5599 57.2576Z" fill="#ADB1F2"/>
<path d="M68.5599 57.7205L68.4238 57.7923L30.5549 37.7838C30.3017 37.6501 29.9893 37.6501 29.736 37.7842L16.3388 44.8776L16.2027 44.8058C16.0082 44.703 16.0082 44.4464 16.2023 44.3433L29.736 37.1777C29.9893 37.0436 30.3017 37.0436 30.5549 37.1774L68.5603 57.2577C68.7544 57.3604 68.7544 57.6177 68.5599 57.7205Z" fill="#9198DB"/>
<path d="M28.7145 38.9926L61.7272 56.4351L63.1954 55.6595L30.1827 38.217L28.7145 38.9926Z" fill="#24126A"/>
<path d="M25.1161 40.8941L56.0809 57.2546L57.5487 56.479L26.5839 40.1185L25.1161 40.8941Z" fill="#24126A"/>
<path d="M22.7721 42.1325L59.2296 61.395L60.6978 60.6194L24.2399 41.3569L22.7721 42.1325Z" fill="#24126A"/>
<path d="M20.4281 43.3709L56.886 62.6334L58.3538 61.8578L21.8963 42.5953L20.4281 43.3709Z" fill="#24126A"/>
<path d="M18.0844 44.6094L54.542 63.8719L56.0098 63.0963L19.5523 43.8338L18.0844 44.6094Z" fill="#24126A"/>
<path d="M63.722 57.489L65.1899 58.2646L66.6581 57.489L65.1902 56.7134L63.722 57.489Z" fill="#24126A"/>
<path d="M58.5446 58.5563L61.5915 60.166L63.0593 59.3904L60.0125 57.7807L58.5446 58.5563Z" fill="#24126A"/>
<path d="M29.0915 62.1172L18.8438 56.7029C18.4433 56.4912 18.4433 56.1482 18.8438 55.9365L25.8513 52.2341C26.2518 52.0224 26.9011 52.0224 27.3017 52.2341L37.5494 57.6483C37.9499 57.86 37.9499 58.2031 37.5494 58.4148L30.5419 62.1172C30.1414 62.3288 29.4921 62.3288 29.0915 62.1172Z" fill="url(#paint18_linear_873_6263)"/>
<path d="M37.5493 57.9618L27.302 52.5476C26.9015 52.3359 26.2522 52.3359 25.8517 52.5476L18.8442 56.25C18.7207 56.3153 18.6397 56.3936 18.5924 56.4763C18.4864 56.2911 18.5671 56.0825 18.8442 55.9362L25.8517 52.2338C26.2522 52.0221 26.9015 52.0221 27.302 52.2338L37.5493 57.648C37.8264 57.7944 37.9071 58.003 37.8011 58.1881C37.7539 58.1058 37.6728 58.0271 37.5493 57.9618Z" fill="#9198DB"/>
<path opacity="0.42" d="M50.9496 55.4692L60.802 49.9209L38.6505 38.217L28.1968 44.6479L50.9496 55.4692Z" fill="url(#paint19_radial_873_6263)"/>
<path opacity="0.42" d="M60.802 49.9209L63.0593 36.8745L42.2716 25.9623V40.1042L60.802 49.9209Z" fill="url(#paint20_radial_873_6263)"/>
<path d="M40.0958 19.6247L42.2951 18.4656V18.4673C42.3241 18.4499 42.3624 18.4489 42.4048 18.4713L69.9616 33.0312C70.0516 33.0788 70.1245 33.2061 70.1245 33.316V38.0765C70.1245 38.1293 70.1071 38.1674 70.0795 38.1885L70.0803 38.1888L70.0784 38.1899C70.0762 38.1916 70.074 38.1922 70.0717 38.1933L67.8505 39.3643L67.833 37.0644L42.4052 23.6297C42.3152 23.582 42.2423 23.4547 42.2423 23.3448V21.7112L40.0958 19.6247Z" fill="url(#paint21_linear_873_6263)"/>
<path d="M40.1945 24.7939L67.7514 39.3538C67.8414 39.4014 67.9143 39.3507 67.9143 39.2411V34.4806C67.9143 34.3707 67.8414 34.2434 67.7514 34.1958L40.1945 19.6363C40.1046 19.5886 40.0317 19.639 40.0317 19.7489V24.5094C40.0317 24.619 40.1046 24.7463 40.1945 24.7939Z" fill="url(#paint22_linear_873_6263)"/>
<path opacity="0.6" d="M43.9956 23.8298L65.4524 35.3753C64.7893 35.8977 64.1612 36.496 63.5851 37.1522L41.9699 25.7319C42.5921 25.023 43.2738 24.3804 43.9956 23.8298Z" fill="#24126A"/>
<path d="M40.9808 23.3642L66.9652 37.093C67.0266 37.1253 67.0764 37.091 67.0764 37.0161V35.8202C67.0764 35.745 67.0266 35.6578 66.9652 35.6255L40.9808 21.8967C40.9194 21.8644 40.8696 21.8988 40.8696 21.9737V23.1696C40.8692 23.2444 40.919 23.3316 40.9808 23.3642Z" fill="#24126A"/>
<path d="M40.9808 21.8964L41.5092 22.1755V22.8211C41.5092 22.8959 41.559 22.9834 41.6204 23.0157L67.0764 36.4654V37.0158C67.0764 37.0906 67.0266 37.1253 66.9652 37.0927L40.9808 23.3635C40.9194 23.3312 40.8696 23.2438 40.8696 23.1689V21.973C40.8692 21.8984 40.919 21.8637 40.9808 21.8964Z" fill="#453C9E"/>
<path opacity="0.96" d="M26.3834 74.875L4.76639 63.4537C7.55517 61.9804 9.90549 58.7555 10.6236 55.6718C10.9148 54.4221 11.7504 53.3365 12.9598 52.6977L29.2949 44.068C33.8446 41.6643 36.794 37.3367 37.1031 32.5374C37.3641 28.4851 40.7119 24.4999 43.3102 23.1274L64.9273 34.5487C62.3676 35.9012 59.5498 39.6809 59.2288 43.6644C58.8421 48.4633 55.9901 52.8069 51.4363 55.2127L34.5772 64.1194C33.3678 64.7582 32.5322 65.8438 32.241 67.0938C31.5225 70.1768 29.1718 73.4018 26.3834 74.875Z" fill="url(#paint23_linear_873_6263)"/>
<g opacity="0.32">
<path opacity="0.32" d="M50.1116 37.5089L52.9131 38.9889V38.7034L50.1116 37.2233V37.5089Z" fill="#4553C7"/>
<path opacity="0.32" d="M48.675 36.7499L49.6836 37.2829V36.997L48.675 36.4641V36.7499Z" fill="#4553C7"/>
<path opacity="0.32" d="M47.5616 36.1615L48.247 36.5236V36.2381L47.5616 35.876V36.1615Z" fill="#4553C7"/>
<path opacity="0.32" d="M51.3868 38.8351L52.913 39.6417V39.3558L51.3868 38.5496V38.8351Z" fill="#4553C7"/>
<path opacity="0.32" d="M49.0882 37.6208L50.9588 38.6091V38.3233L49.0882 37.335V37.6208Z" fill="#4553C7"/>
<path opacity="0.32" d="M47.9748 37.0324L48.6602 37.3945V37.109L47.9748 36.7469V37.0324Z" fill="#4553C7"/>
<path opacity="0.32" d="M46.9152 36.4725L47.6006 36.8347V36.5491L46.9152 36.187V36.4725Z" fill="#4553C7"/>
<path opacity="0.32" d="M51.8086 39.7108L52.9131 40.2941V40.0086L51.8086 39.4249V39.7108Z" fill="#4553C7"/>
<path opacity="0.32" d="M51.0034 39.2851L51.3809 39.4845V39.1989L51.0034 38.9995V39.2851Z" fill="#4553C7"/>
<path opacity="0.32" d="M49.89 38.6969L50.5754 39.059V38.7732L49.89 38.4111V38.6969Z" fill="#4553C7"/>
<path opacity="0.32" d="M48.8368 38.7929L52.913 40.9468V40.661L48.8368 38.5074V38.7929Z" fill="#4553C7"/>
<path opacity="0.32" d="M47.4002 38.034L48.4087 38.5669V38.2811L47.4002 37.7481V38.034Z" fill="#4553C7"/>
<path opacity="0.32" d="M51.8086 41.0159L52.9131 41.5992V41.3137L51.8086 40.73V41.0159Z" fill="#4553C7"/>
<path opacity="0.32" d="M49.2169 39.6465L51.3809 40.7896V40.5041L49.2169 39.3606V39.6465Z" fill="#4553C7"/>
<path opacity="0.32" d="M48.1034 39.0581L48.7888 39.4202V39.1346L48.1034 38.7725V39.0581Z" fill="#4553C7"/>
<path opacity="0.32" d="M50.6535 41.0578L52.9131 42.2517V41.9661L50.6535 40.7723V41.0578Z" fill="#4553C7"/>
<path opacity="0.32" d="M48.5914 39.9684L50.2254 40.8318V40.5463L48.5914 39.6829V39.9684Z" fill="#4553C7"/>
<path opacity="0.32" d="M47.0588 39.1588L48.1633 39.7424V39.4565L47.0588 38.8732V39.1588Z" fill="#4553C7"/>
<path opacity="0.32" d="M52.15 42.5011L52.9131 42.9044V42.6189L52.15 42.2156V42.5011Z" fill="#4553C7"/>
<path opacity="0.32" d="M50.7133 41.7422L51.7219 42.2751V41.9893L50.7133 41.4563V41.7422Z" fill="#4553C7"/>
<path opacity="0.32" d="M48.6602 40.6572L50.2853 41.5159V41.2304L48.6602 40.3717V40.6572Z" fill="#4553C7"/>
<path opacity="0.32" d="M50.5754 42.3218L52.913 43.5568V43.2713L50.5754 42.0363V42.3218Z" fill="#4553C7"/>
<path opacity="0.32" d="M47.9569 40.9383L50.1473 42.0955V41.8099L47.9569 40.6525V40.9383Z" fill="#4553C7"/>
<path opacity="0.32" d="M46.8435 40.3499L47.5289 40.712V40.4265L46.8435 40.0644V40.3499Z" fill="#4553C7"/>
<path opacity="0.32" d="M45.7751 39.7854L46.4605 40.1478V39.8619L45.7751 39.4998V39.7854Z" fill="#4553C7"/>
<path opacity="0.32" d="M51.5125 43.4694L52.9131 44.2096V43.9237L51.5125 43.1838V43.4694Z" fill="#4553C7"/>
<path opacity="0.32" d="M44.4296 34.5068L42.4872 33.4804V33.1949L44.4296 34.221V34.5068Z" fill="#4553C7"/>
<path opacity="0.32" d="M44.0134 34.9394L42.4872 34.1328V33.8473L44.0134 34.6539V34.9394Z" fill="#4553C7"/>
<path opacity="0.32" d="M43.5913 35.3689L42.4872 34.7855V34.5L43.5913 35.0833V35.3689Z" fill="#4553C7"/>
<path opacity="0.32" d="M44.0934 36.2867L42.4872 35.4379V35.1524L44.0934 36.0012V36.2867Z" fill="#4553C7"/>
<path opacity="0.32" d="M43.5913 36.674L42.4872 36.0907V35.8048L43.5913 36.3885V36.674Z" fill="#4553C7"/>
<path opacity="0.32" d="M43.8877 37.4833L42.4872 36.7431V36.4576L43.8877 37.1975V37.4833Z" fill="#4553C7"/>
<path opacity="0.32" d="M43.2503 37.7991L42.4872 37.3959V37.11L43.2503 37.5133V37.7991Z" fill="#4553C7"/>
<path opacity="0.32" d="M43.9658 38.8297L42.4872 38.0483V37.7628L43.9658 38.5441V38.8297Z" fill="#4553C7"/>
<path opacity="0.32" d="M43.8877 39.4409L42.4872 38.701V38.4152L43.8877 39.1554V39.4409Z" fill="#4553C7"/>
<path opacity="0.32" d="M50.4887 42.9285L51.0845 43.2433V42.9575L50.4887 42.643V42.9285Z" fill="#4553C7"/>
<path opacity="0.32" d="M48.72 41.994L50.0607 42.7026V42.4167L48.72 41.7085V41.994Z" fill="#4553C7"/>
</g>
<path opacity="0.8" d="M43.3098 23.1266L64.9269 34.548C64.7536 34.6396 64.5821 34.7389 64.4122 34.8417L64.4107 34.8407L42.7963 23.4197C42.9662 23.3172 43.1369 23.2182 43.3098 23.1266Z" fill="#453C9E"/>
<path d="M22.6043 32.9897H29.5002V46.468C29.5002 46.9343 29.1637 47.4005 28.4902 47.7562C27.1436 48.4675 24.9606 48.4675 23.614 47.7562C22.9409 47.4005 22.604 46.9343 22.6043 46.468V32.9897Z" fill="url(#paint24_linear_873_6263)"/>
<path d="M22.6043 32.9897H29.5002V46.468C29.5002 46.9343 29.1637 47.4005 28.4902 47.7562C27.1436 48.4675 24.9606 48.4675 23.614 47.7562C22.9409 47.4005 22.604 46.9343 22.6043 46.468V32.9897Z" fill="url(#paint25_linear_873_6263)"/>
<path d="M23.614 34.2783C24.9606 34.9895 27.1436 34.9895 28.4902 34.2783C29.8368 33.567 29.8368 32.4133 28.4902 31.702C27.1436 30.9907 24.9606 30.9907 23.614 31.702C22.2678 32.4133 22.2678 33.5666 23.614 34.2783Z" fill="url(#paint26_linear_873_6263)"/>
<path opacity="0.3" d="M24.4783 33.8215C25.3474 34.281 26.7568 34.2806 27.6263 33.8215C28.4954 33.3621 28.4954 32.6175 27.6263 32.1584C26.7572 31.6989 25.3477 31.6993 24.4783 32.1584C23.6088 32.6175 23.6092 33.3624 24.4783 33.8215Z" fill="url(#paint27_linear_873_6263)"/>
<path opacity="0.5" d="M23.614 34.1428C24.9606 34.8541 27.1435 34.8541 28.4901 34.1428C29.1309 33.8042 29.463 33.3655 29.4939 32.9221C29.5281 33.4108 29.196 33.9049 28.4901 34.2779C27.1435 34.9892 24.9606 34.9892 23.614 34.2779C22.9081 33.9049 22.576 33.4108 22.6102 32.9221C22.6415 33.3658 22.9736 33.8045 23.614 34.1428Z" fill="white"/>
<path d="M22.6043 30.0613H29.5002V31.2922C29.5002 31.7585 29.1637 32.2247 28.4902 32.5804C27.1436 33.2917 24.9606 33.292 23.614 32.5804C22.9409 32.2247 22.604 31.7585 22.6043 31.2922V30.0613Z" fill="url(#paint28_linear_873_6263)"/>
<path d="M22.6043 30.0613H29.5002V31.2922C29.5002 31.7585 29.1637 32.2247 28.4902 32.5804C27.1436 33.2917 24.9606 33.292 23.614 32.5804C22.9409 32.2247 22.604 31.7585 22.6043 31.2922V30.0613Z" fill="url(#paint29_linear_873_6263)"/>
<path d="M23.614 31.3497C24.9606 32.061 27.1436 32.061 28.4902 31.3497C29.8368 30.6384 29.8368 29.4847 28.4902 28.7735C27.1436 28.0622 24.9606 28.0622 23.614 28.7735C22.2678 29.4847 22.2678 30.6381 23.614 31.3497Z" fill="url(#paint30_linear_873_6263)"/>
<path opacity="0.5" d="M23.6139 31.2143C24.9605 31.9256 27.1435 31.9256 28.4901 31.2143C29.1308 30.8757 29.4629 30.437 29.4938 29.9935C29.528 30.4819 29.1959 30.9764 28.4901 31.3494C27.1435 32.0607 24.9605 32.061 23.6139 31.3494C22.9081 30.9764 22.576 30.4822 22.6102 29.9935C22.6414 30.4373 22.9735 30.876 23.6139 31.2143Z" fill="white"/>
<path d="M28.3057 40.4912H35.2016V49.4772C35.2016 49.9434 34.8651 50.4097 34.1916 50.7653C32.845 51.4766 30.662 51.477 29.3154 50.7653C28.6423 50.4097 28.3054 49.9434 28.3057 49.4772V40.4912Z" fill="url(#paint31_linear_873_6263)"/>
<path d="M28.3057 40.4912H35.2016V49.4772C35.2016 49.9434 34.8651 50.4097 34.1916 50.7653C32.845 51.4766 30.662 51.477 29.3154 50.7653C28.6423 50.4097 28.3054 49.9434 28.3057 49.4772V40.4912Z" fill="url(#paint32_linear_873_6263)"/>
<path d="M29.3159 41.7794C30.6625 42.4906 32.8455 42.4906 34.1921 41.7794C35.5387 41.0681 35.5387 39.9144 34.1921 39.2031C32.8455 38.4918 30.6625 38.4918 29.3159 39.2031C27.9693 39.9144 27.9693 41.0681 29.3159 41.7794Z" fill="url(#paint33_linear_873_6263)"/>
<path opacity="0.5" d="M29.3157 41.6443C30.6623 42.3556 32.8453 42.3556 34.1919 41.6443C34.8326 41.3057 35.1647 40.867 35.1956 40.4235C35.2298 40.9122 34.8977 41.4064 34.1919 41.7794C32.8453 42.4907 30.6623 42.491 29.3157 41.7794C28.6099 41.4064 28.2778 40.9122 28.312 40.4235C28.3428 40.867 28.6749 41.3057 29.3157 41.6443Z" fill="white"/>
<path d="M34.0071 38.8985H40.903V52.486C40.903 52.9523 40.5664 53.4185 39.893 53.7742C38.5464 54.4855 36.3634 54.4855 35.0168 53.7742C34.3437 53.4185 34.0067 52.9523 34.0071 52.486V38.8985Z" fill="url(#paint34_linear_873_6263)"/>
<path d="M34.0071 38.8985H40.903V52.486C40.903 52.9523 40.5664 53.4185 39.893 53.7742C38.5464 54.4855 36.3634 54.4855 35.0168 53.7742C34.3437 53.4185 34.0067 52.9523 34.0071 52.486V38.8985Z" fill="url(#paint35_linear_873_6263)"/>
<path d="M35.0173 40.1866C36.3639 40.8979 38.5469 40.8979 39.8935 40.1866C41.2401 39.4754 41.2401 38.3217 39.8935 37.6104C38.5469 36.8991 36.3639 36.8991 35.0173 37.6104C33.6707 38.3217 33.6707 39.4754 35.0173 40.1866Z" fill="url(#paint36_linear_873_6263)"/>
<path opacity="0.5" d="M35.0171 40.0515C36.3637 40.7628 38.5466 40.7628 39.8933 40.0515C40.534 39.7129 40.8661 39.2742 40.897 38.8307C40.9312 39.3195 40.5991 39.8136 39.8933 40.1866C38.5466 40.8979 36.3637 40.8979 35.0171 40.1866C34.3112 39.8136 33.9791 39.3195 34.0134 38.8307C34.0442 39.2742 34.3763 39.7129 35.0171 40.0515Z" fill="white"/>
<path d="M39.7089 44.357H46.6048V55.4949C46.6048 55.9611 46.2682 56.4274 45.5947 56.783C44.2481 57.4943 42.0652 57.4943 40.7185 56.783C40.0454 56.4274 39.7089 55.9611 39.7089 55.4949V44.357Z" fill="url(#paint37_linear_873_6263)"/>
<path d="M39.7089 44.357H46.6048V55.4949C46.6048 55.9611 46.2682 56.4274 45.5947 56.783C44.2481 57.4943 42.0652 57.4943 40.7185 56.783C40.0454 56.4274 39.7089 55.9611 39.7089 55.4949V44.357Z" fill="url(#paint38_linear_873_6263)"/>
<path d="M40.7186 45.6452C42.0652 46.3564 44.2481 46.3564 45.5947 45.6452C46.9413 44.9339 46.9413 43.7802 45.5947 43.0689C44.2481 42.3576 42.0652 42.3576 40.7186 43.0689C39.3723 43.7802 39.3723 44.9339 40.7186 45.6452Z" fill="url(#paint39_linear_873_6263)"/>
<path opacity="0.5" d="M40.7185 45.51C42.0651 46.2213 44.2481 46.2213 45.5947 45.51C46.2354 45.1714 46.5675 44.7327 46.5984 44.2892C46.6326 44.778 46.3005 45.2721 45.5947 45.6451C44.2481 46.3564 42.0651 46.3564 40.7185 45.6451C40.0127 45.2721 39.6806 44.778 39.7148 44.2892C39.746 44.7327 40.0781 45.1714 40.7185 45.51Z" fill="white"/>
<path d="M45.4103 50.1119H52.3062V58.5041C52.3062 58.9703 51.9696 59.4366 51.2961 59.7922C49.9495 60.5035 47.7666 60.5038 46.42 59.7922C45.7468 59.4366 45.4103 58.9703 45.4103 58.5041V50.1119Z" fill="url(#paint40_linear_873_6263)"/>
<path d="M45.4103 50.1119H52.3062V58.5041C52.3062 58.9703 51.9696 59.4366 51.2961 59.7922C49.9495 60.5035 47.7666 60.5038 46.42 59.7922C45.7468 59.4366 45.4103 58.9703 45.4103 58.5041V50.1119Z" fill="url(#paint41_linear_873_6263)"/>
<path d="M46.4205 51.4001C47.7671 52.1114 49.9501 52.1114 51.2967 51.4001C52.6433 50.6888 52.6433 49.5351 51.2967 48.8238C49.9501 48.1125 47.7671 48.1125 46.4205 48.8238C45.0739 49.5351 45.0739 50.6885 46.4205 51.4001Z" fill="url(#paint42_linear_873_6263)"/>
<path opacity="0.5" d="M46.4203 51.2649C47.7669 51.9762 49.9498 51.9762 51.2964 51.2649C51.9372 50.9263 52.2693 50.4876 52.3002 50.0442C52.3344 50.5329 52.0023 51.0271 51.2964 51.4C49.9498 52.1113 47.7669 52.1117 46.4203 51.4C45.7144 51.0271 45.3823 50.5329 45.4165 50.0442C45.4474 50.4876 45.7795 50.9263 46.4203 51.2649Z" fill="white"/>
<path d="M76.4703 27.4897L77.1363 27.8777L77.2152 27.4275L76.5491 27.0395L76.4703 27.4897Z" fill="#42E8E0"/>
<path d="M75.9362 30.535L76.6023 30.9229L77.0645 28.2881L76.3981 27.9001L75.9362 30.535Z" fill="#42E8E0"/>
<path d="M75.6807 31.9913L76.3471 32.3792L76.5305 31.3334L75.8641 30.9454L75.6807 31.9913Z" fill="#42E8E0"/>
<path d="M75.4159 33.5009L76.0824 33.8886L76.2657 32.8427L75.5997 32.4548L75.4159 33.5009Z" fill="#42E8E0"/>
<path d="M75.2215 28.3678L75.8875 28.7557L76.0709 27.7096L75.4048 27.3216L75.2215 28.3678Z" fill="#42E8E0"/>
<path d="M74.8708 30.3669L75.5368 30.7549L75.8064 29.219L75.14 28.831L74.8708 30.3669Z" fill="#42E8E0"/>
<path d="M74.548 32.2074L75.2144 32.5953L75.4453 31.2779L74.7789 30.89L74.548 32.2074Z" fill="#42E8E0"/>
<path d="M75.1515 35.0103L75.8176 35.3983L76.0009 34.3521L75.3349 33.9641L75.1515 35.0103Z" fill="#42E8E0"/>
<path d="M75.4769 26.9112L76.143 27.2992L76.2218 26.8489L75.5558 26.4609L75.4769 26.9112Z" fill="#42E8E0"/>
<path d="M74.3981 36.1858L75.5606 36.8627L75.6372 36.4257L74.4747 35.7488L74.3981 36.1858Z" fill="#42E8E0"/>
<defs>
<linearGradient id="paint0_linear_873_6263" x1="38.8466" y1="10.7105" x2="23.7358" y2="10.7105" gradientUnits="userSpaceOnUse">
<stop stop-color="#42E8E0"/>
<stop offset="0.1507" stop-color="#43E3E0"/>
<stop offset="0.3285" stop-color="#45D5DF"/>
<stop offset="0.5199" stop-color="#49BDDD"/>
<stop offset="0.7209" stop-color="#4E9CDB"/>
<stop offset="0.9274" stop-color="#5472D8"/>
<stop offset="1" stop-color="#5761D7"/>
</linearGradient>
<linearGradient id="paint1_linear_873_6263" x1="35.5199" y1="12.4547" x2="20.4092" y2="12.4547" gradientUnits="userSpaceOnUse">
<stop stop-color="#42E8E0"/>
<stop offset="0.1507" stop-color="#43E3E0"/>
<stop offset="0.3285" stop-color="#45D5DF"/>
<stop offset="0.5199" stop-color="#49BDDD"/>
<stop offset="0.7209" stop-color="#4E9CDB"/>
<stop offset="0.9274" stop-color="#5472D8"/>
<stop offset="1" stop-color="#5761D7"/>
</linearGradient>
<linearGradient id="paint2_linear_873_6263" x1="32.1932" y1="14.1988" x2="17.0825" y2="14.1988" gradientUnits="userSpaceOnUse">
<stop stop-color="#42E8E0"/>
<stop offset="0.1507" stop-color="#43E3E0"/>
<stop offset="0.3285" stop-color="#45D5DF"/>
<stop offset="0.5199" stop-color="#49BDDD"/>
<stop offset="0.7209" stop-color="#4E9CDB"/>
<stop offset="0.9274" stop-color="#5472D8"/>
<stop offset="1" stop-color="#5761D7"/>
</linearGradient>
<linearGradient id="paint3_linear_873_6263" x1="19.3977" y1="34.9323" x2="18.3772" y2="36.8637" gradientUnits="userSpaceOnUse">
<stop stop-color="#5761D7"/>
<stop offset="0.1645" stop-color="#5E67DA"/>
<stop offset="0.4051" stop-color="#727AE2"/>
<stop offset="0.6924" stop-color="#9297EE"/>
<stop offset="1" stop-color="#BCBEFF"/>
</linearGradient>
<linearGradient id="paint4_linear_873_6263" x1="19.3978" y1="37.8706" x2="18.3772" y2="39.802" gradientUnits="userSpaceOnUse">
<stop stop-color="#5761D7"/>
<stop offset="0.1645" stop-color="#5E67DA"/>
<stop offset="0.4051" stop-color="#727AE2"/>
<stop offset="0.6924" stop-color="#9297EE"/>
<stop offset="1" stop-color="#BCBEFF"/>
</linearGradient>
<linearGradient id="paint5_linear_873_6263" x1="19.3978" y1="40.8604" x2="18.3772" y2="42.7919" gradientUnits="userSpaceOnUse">
<stop stop-color="#5761D7"/>
<stop offset="0.1645" stop-color="#5E67DA"/>
<stop offset="0.4051" stop-color="#727AE2"/>
<stop offset="0.6924" stop-color="#9297EE"/>
<stop offset="1" stop-color="#BCBEFF"/>
</linearGradient>
<linearGradient id="paint6_linear_873_6263" x1="24.3155" y1="37.8542" x2="15.2798" y2="37.8542" gradientUnits="userSpaceOnUse">
<stop stop-color="#5761D7"/>
<stop offset="0.1645" stop-color="#5E67DA"/>
<stop offset="0.4051" stop-color="#727AE2"/>
<stop offset="0.6924" stop-color="#9297EE"/>
<stop offset="1" stop-color="#BCBEFF"/>
</linearGradient>
<linearGradient id="paint7_linear_873_6263" x1="19.8813" y1="35.2226" x2="16.5762" y2="35.2226" gradientUnits="userSpaceOnUse">
<stop stop-color="#42E8E0"/>
<stop offset="0.1507" stop-color="#43E3E0"/>
<stop offset="0.3285" stop-color="#45D5DF"/>
<stop offset="0.5199" stop-color="#49BDDD"/>
<stop offset="0.7209" stop-color="#4E9CDB"/>
<stop offset="0.9274" stop-color="#5472D8"/>
<stop offset="1" stop-color="#5761D7"/>
</linearGradient>
<linearGradient id="paint8_linear_873_6263" x1="19.8813" y1="38.1609" x2="16.5762" y2="38.1609" gradientUnits="userSpaceOnUse">
<stop stop-color="#42E8E0"/>
<stop offset="0.1507" stop-color="#43E3E0"/>
<stop offset="0.3285" stop-color="#45D5DF"/>
<stop offset="0.5199" stop-color="#49BDDD"/>
<stop offset="0.7209" stop-color="#4E9CDB"/>
<stop offset="0.9274" stop-color="#5472D8"/>
<stop offset="1" stop-color="#5761D7"/>
</linearGradient>
<linearGradient id="paint9_linear_873_6263" x1="19.8812" y1="41.1506" x2="16.5762" y2="41.1506" gradientUnits="userSpaceOnUse">
<stop stop-color="#42E8E0"/>
<stop offset="0.1507" stop-color="#43E3E0"/>
<stop offset="0.3285" stop-color="#45D5DF"/>
<stop offset="0.5199" stop-color="#49BDDD"/>
<stop offset="0.7209" stop-color="#4E9CDB"/>
<stop offset="0.9274" stop-color="#5472D8"/>
<stop offset="1" stop-color="#5761D7"/>
</linearGradient>
<linearGradient id="paint10_linear_873_6263" x1="30.0949" y1="22.2961" x2="9.7298" y2="9.39519" gradientUnits="userSpaceOnUse">
<stop stop-color="#5761D7"/>
<stop offset="0.1645" stop-color="#5E67DA"/>
<stop offset="0.4051" stop-color="#727AE2"/>
<stop offset="0.6924" stop-color="#9297EE"/>
<stop offset="1" stop-color="#BCBEFF"/>
</linearGradient>
<linearGradient id="paint11_linear_873_6263" x1="6.67375" y1="12.2476" x2="24.6842" y2="26.6569" gradientUnits="userSpaceOnUse">
<stop stop-color="#5761D7"/>
<stop offset="0.1645" stop-color="#5E67DA"/>
<stop offset="0.4051" stop-color="#727AE2"/>
<stop offset="0.6924" stop-color="#9297EE"/>
<stop offset="1" stop-color="#BCBEFF"/>
</linearGradient>
<linearGradient id="paint12_linear_873_6263" x1="25.1269" y1="17.6464" x2="10.0162" y2="17.6464" gradientUnits="userSpaceOnUse">
<stop stop-color="#42E8E0"/>
<stop offset="0.1507" stop-color="#43E3E0"/>
<stop offset="0.3285" stop-color="#45D5DF"/>
<stop offset="0.5199" stop-color="#49BDDD"/>
<stop offset="0.7209" stop-color="#4E9CDB"/>
<stop offset="0.9274" stop-color="#5472D8"/>
<stop offset="1" stop-color="#5761D7"/>
</linearGradient>
<linearGradient id="paint13_linear_873_6263" x1="25.7841" y1="17.32" x2="10.6734" y2="17.32" gradientUnits="userSpaceOnUse">
<stop stop-color="#42E8E0"/>
<stop offset="0.1507" stop-color="#43E3E0"/>
<stop offset="0.3285" stop-color="#45D5DF"/>
<stop offset="0.5199" stop-color="#49BDDD"/>
<stop offset="0.7209" stop-color="#4E9CDB"/>
<stop offset="0.9274" stop-color="#5472D8"/>
<stop offset="1" stop-color="#5761D7"/>
</linearGradient>
<linearGradient id="paint14_linear_873_6263" x1="83.1029" y1="28.9493" x2="29.7275" y2="28.9493" gradientUnits="userSpaceOnUse">
<stop stop-color="#C0BFF6"/>
<stop offset="0.2938" stop-color="#C5C4F7"/>
<stop offset="0.6399" stop-color="#D3D2F9"/>
<stop offset="1" stop-color="#E9E9FD"/>
</linearGradient>
<linearGradient id="paint15_linear_873_6263" x1="83.1025" y1="41.476" x2="73.9375" y2="41.476" gradientUnits="userSpaceOnUse">
<stop stop-color="#5761D7"/>
<stop offset="0.1779" stop-color="#5C66D9"/>
<stop offset="0.3876" stop-color="#6A73DF"/>
<stop offset="0.6134" stop-color="#8289E8"/>
<stop offset="0.849" stop-color="#A3A7F5"/>
<stop offset="1" stop-color="#BCBEFF"/>
</linearGradient>
<linearGradient id="paint16_linear_873_6263" x1="75.9518" y1="55.5575" x2="0.568299" y2="55.5575" gradientUnits="userSpaceOnUse">
<stop stop-color="#5761D7"/>
<stop offset="0.1779" stop-color="#5C66D9"/>
<stop offset="0.3876" stop-color="#6A73DF"/>
<stop offset="0.6134" stop-color="#8289E8"/>
<stop offset="0.849" stop-color="#A3A7F5"/>
<stop offset="1" stop-color="#BCBEFF"/>
</linearGradient>
<linearGradient id="paint17_linear_873_6263" x1="50.6227" y1="53.2572" x2="-24.8009" y2="53.2572" gradientUnits="userSpaceOnUse">
<stop stop-color="#C0BFF6"/>
<stop offset="0.2938" stop-color="#C5C4F7"/>
<stop offset="0.6399" stop-color="#D3D2F9"/>
<stop offset="1" stop-color="#E9E9FD"/>
</linearGradient>
<linearGradient id="paint18_linear_873_6263" x1="37.8498" y1="57.1755" x2="18.5435" y2="57.1755" gradientUnits="userSpaceOnUse">
<stop stop-color="#C0BFF6"/>
<stop offset="0.2938" stop-color="#C5C4F7"/>
<stop offset="0.6399" stop-color="#D3D2F9"/>
<stop offset="1" stop-color="#E9E9FD"/>
</linearGradient>
<radialGradient id="paint19_radial_873_6263" cx="0" cy="0" r="1" gradientUnits="userSpaceOnUse" gradientTransform="translate(53.9822 46.8431) rotate(180) scale(21.6224 19.7874)">
<stop stop-color="#2B237C"/>
<stop offset="1" stop-color="#180D5B"/>
</radialGradient>
<radialGradient id="paint20_radial_873_6263" cx="0" cy="0" r="1" gradientUnits="userSpaceOnUse" gradientTransform="translate(58.7113 37.9417) rotate(180) scale(16.5506 15.1461)">
<stop stop-color="#2B237C"/>
<stop offset="1" stop-color="#180D5B"/>
</radialGradient>
<linearGradient id="paint21_linear_873_6263" x1="64.6694" y1="42.3142" x2="51.9733" y2="17.333" gradientUnits="userSpaceOnUse">
<stop stop-color="#5761D7"/>
<stop offset="0.0398" stop-color="#5C66D9"/>
<stop offset="0.0867" stop-color="#6A73DF"/>
<stop offset="0.1372" stop-color="#8289E8"/>
<stop offset="0.1899" stop-color="#A3A7F5"/>
<stop offset="0.2237" stop-color="#BCBEFF"/>
</linearGradient>
<linearGradient id="paint22_linear_873_6263" x1="46.7595" y1="42.3994" x2="55.1698" y2="24.4335" gradientUnits="userSpaceOnUse">
<stop stop-color="#C0BFF6"/>
<stop offset="0.2938" stop-color="#C5C4F7"/>
<stop offset="0.6399" stop-color="#D3D2F9"/>
<stop offset="1" stop-color="#E9E9FD"/>
</linearGradient>
<linearGradient id="paint23_linear_873_6263" x1="20.531" y1="73.6053" x2="47.4153" y2="21.5513" gradientUnits="userSpaceOnUse">
<stop stop-color="#C0BFF6"/>
<stop offset="0.0775" stop-color="#C3C2F6"/>
<stop offset="0.1329" stop-color="#CCCBF8"/>
<stop offset="0.1813" stop-color="#DBDBFB"/>
<stop offset="0.2117" stop-color="#E9E9FD"/>
<stop offset="0.2579" stop-color="#D8D7FA"/>
<stop offset="0.3159" stop-color="#CACAF8"/>
<stop offset="0.3878" stop-color="#C2C1F6"/>
<stop offset="0.5143" stop-color="#C0BFF6"/>
<stop offset="0.6217" stop-color="#D0CFF9"/>
<stop offset="0.755" stop-color="#E9E9FD"/>
<stop offset="1" stop-color="#C0BFF6"/>
</linearGradient>
<linearGradient id="paint24_linear_873_6263" x1="29.5003" y1="40.64" x2="22.6436" y2="40.64" gradientUnits="userSpaceOnUse">
<stop stop-color="#C0BFF6"/>
<stop offset="0.488" stop-color="#D2D1F9"/>
<stop offset="1" stop-color="#E9E9FD"/>
</linearGradient>
<linearGradient id="paint25_linear_873_6263" x1="37.1844" y1="40.64" x2="23.9342" y2="40.64" gradientUnits="userSpaceOnUse">
<stop stop-color="#5761D7"/>
<stop offset="0.1779" stop-color="#5C66D9"/>
<stop offset="0.3876" stop-color="#6A73DF"/>
<stop offset="0.6134" stop-color="#8289E8"/>
<stop offset="0.849" stop-color="#A3A7F5"/>
<stop offset="1" stop-color="#BCBEFF"/>
</linearGradient>
<linearGradient id="paint26_linear_873_6263" x1="28.4904" y1="31.7017" x2="26.3619" y2="35.73" gradientUnits="userSpaceOnUse">
<stop stop-color="#C0BFF6"/>
<stop offset="0.2938" stop-color="#C5C4F7"/>
<stop offset="0.6399" stop-color="#D3D2F9"/>
<stop offset="1" stop-color="#E9E9FD"/>
</linearGradient>
<linearGradient id="paint27_linear_873_6263" x1="27.6262" y1="32.1583" x2="26.2522" y2="34.7588" gradientUnits="userSpaceOnUse">
<stop stop-color="#5761D7"/>
<stop offset="0.1779" stop-color="#5C66D9"/>
<stop offset="0.3876" stop-color="#6A73DF"/>
<stop offset="0.6134" stop-color="#8289E8"/>
<stop offset="0.849" stop-color="#A3A7F5"/>
<stop offset="1" stop-color="#BCBEFF"/>
</linearGradient>
<linearGradient id="paint28_linear_873_6263" x1="29.5003" y1="31.5878" x2="22.6436" y2="31.5878" gradientUnits="userSpaceOnUse">
<stop stop-color="#C0BFF6"/>
<stop offset="0.488" stop-color="#D2D1F9"/>
<stop offset="1" stop-color="#E9E9FD"/>
</linearGradient>
<linearGradient id="paint29_linear_873_6263" x1="37.1844" y1="31.5878" x2="23.9342" y2="31.5878" gradientUnits="userSpaceOnUse">
<stop stop-color="#5761D7"/>
<stop offset="0.1779" stop-color="#5C66D9"/>
<stop offset="0.3876" stop-color="#6A73DF"/>
<stop offset="0.6134" stop-color="#8289E8"/>
<stop offset="0.849" stop-color="#A3A7F5"/>
<stop offset="1" stop-color="#BCBEFF"/>
</linearGradient>
<linearGradient id="paint30_linear_873_6263" x1="28.4904" y1="28.7732" x2="26.362" y2="32.8015" gradientUnits="userSpaceOnUse">
<stop stop-color="#C0BFF6"/>
<stop offset="0.2938" stop-color="#C5C4F7"/>
<stop offset="0.6399" stop-color="#D3D2F9"/>
<stop offset="1" stop-color="#E9E9FD"/>
</linearGradient>
<linearGradient id="paint31_linear_873_6263" x1="35.2018" y1="45.8951" x2="28.3452" y2="45.8951" gradientUnits="userSpaceOnUse">
<stop stop-color="#C0BFF6"/>
<stop offset="0.488" stop-color="#D2D1F9"/>
<stop offset="1" stop-color="#E9E9FD"/>
</linearGradient>
<linearGradient id="paint32_linear_873_6263" x1="42.886" y1="45.8951" x2="29.6357" y2="45.8951" gradientUnits="userSpaceOnUse">
<stop stop-color="#5761D7"/>
<stop offset="0.1779" stop-color="#5C66D9"/>
<stop offset="0.3876" stop-color="#6A73DF"/>
<stop offset="0.6134" stop-color="#8289E8"/>
<stop offset="0.849" stop-color="#A3A7F5"/>
<stop offset="1" stop-color="#BCBEFF"/>
</linearGradient>
<linearGradient id="paint33_linear_873_6263" x1="34.1921" y1="39.203" x2="32.0636" y2="43.2313" gradientUnits="userSpaceOnUse">
<stop stop-color="#C0BFF6"/>
<stop offset="0.2938" stop-color="#C5C4F7"/>
<stop offset="0.6399" stop-color="#D3D2F9"/>
<stop offset="1" stop-color="#E9E9FD"/>
</linearGradient>
<linearGradient id="paint34_linear_873_6263" x1="40.9033" y1="46.6032" x2="34.0466" y2="46.6032" gradientUnits="userSpaceOnUse">
<stop stop-color="#C0BFF6"/>
<stop offset="0.488" stop-color="#D2D1F9"/>
<stop offset="1" stop-color="#E9E9FD"/>
</linearGradient>
<linearGradient id="paint35_linear_873_6263" x1="48.5875" y1="46.6032" x2="35.3372" y2="46.6032" gradientUnits="userSpaceOnUse">
<stop stop-color="#5761D7"/>
<stop offset="0.1779" stop-color="#5C66D9"/>
<stop offset="0.3876" stop-color="#6A73DF"/>
<stop offset="0.6134" stop-color="#8289E8"/>
<stop offset="0.849" stop-color="#A3A7F5"/>
<stop offset="1" stop-color="#BCBEFF"/>
</linearGradient>
<linearGradient id="paint36_linear_873_6263" x1="39.8935" y1="37.6103" x2="37.7651" y2="41.6386" gradientUnits="userSpaceOnUse">
<stop stop-color="#C0BFF6"/>
<stop offset="0.2938" stop-color="#C5C4F7"/>
<stop offset="0.6399" stop-color="#D3D2F9"/>
<stop offset="1" stop-color="#E9E9FD"/>
</linearGradient>
<linearGradient id="paint37_linear_873_6263" x1="46.6048" y1="50.8369" x2="39.7481" y2="50.8369" gradientUnits="userSpaceOnUse">
<stop stop-color="#C0BFF6"/>
<stop offset="0.488" stop-color="#D2D1F9"/>
<stop offset="1" stop-color="#E9E9FD"/>
</linearGradient>
<linearGradient id="paint38_linear_873_6263" x1="54.289" y1="50.8369" x2="41.0387" y2="50.8369" gradientUnits="userSpaceOnUse">
<stop stop-color="#5761D7"/>
<stop offset="0.1779" stop-color="#5C66D9"/>
<stop offset="0.3876" stop-color="#6A73DF"/>
<stop offset="0.6134" stop-color="#8289E8"/>
<stop offset="0.849" stop-color="#A3A7F5"/>
<stop offset="1" stop-color="#BCBEFF"/>
</linearGradient>
<linearGradient id="paint39_linear_873_6263" x1="45.5949" y1="43.0688" x2="43.4664" y2="47.0971" gradientUnits="userSpaceOnUse">
<stop stop-color="#C0BFF6"/>
<stop offset="0.2938" stop-color="#C5C4F7"/>
<stop offset="0.6399" stop-color="#D3D2F9"/>
<stop offset="1" stop-color="#E9E9FD"/>
</linearGradient>
<linearGradient id="paint40_linear_873_6263" x1="52.3063" y1="55.2187" x2="45.4497" y2="55.2187" gradientUnits="userSpaceOnUse">
<stop stop-color="#C0BFF6"/>
<stop offset="0.488" stop-color="#D2D1F9"/>
<stop offset="1" stop-color="#E9E9FD"/>
</linearGradient>
<linearGradient id="paint41_linear_873_6263" x1="59.9905" y1="55.2187" x2="46.7402" y2="55.2187" gradientUnits="userSpaceOnUse">
<stop stop-color="#5761D7"/>
<stop offset="0.1779" stop-color="#5C66D9"/>
<stop offset="0.3876" stop-color="#6A73DF"/>
<stop offset="0.6134" stop-color="#8289E8"/>
<stop offset="0.849" stop-color="#A3A7F5"/>
<stop offset="1" stop-color="#BCBEFF"/>
</linearGradient>
<linearGradient id="paint42_linear_873_6263" x1="51.2966" y1="48.8236" x2="49.1682" y2="52.8519" gradientUnits="userSpaceOnUse">
<stop stop-color="#C0BFF6"/>
<stop offset="0.2938" stop-color="#C5C4F7"/>
<stop offset="0.6399" stop-color="#D3D2F9"/>
<stop offset="1" stop-color="#E9E9FD"/>
</linearGradient>
</defs>
</svg>
