<svg width="88" height="82" viewBox="0 0 88 82" fill="none" xmlns="http://www.w3.org/2000/svg">
<g clip-path="url(#clip0_1457_5339)">
<path d="M46.7937 82C46.114 82 45.4345 81.8423 44.8284 81.5265L3.33073 59.9144C3.02841 59.7569 2.84781 59.475 2.84781 59.16C2.84781 58.845 3.02841 58.5631 3.33073 58.4056L29.3176 44.8715L29.5192 44.9766L72.7806 67.5074C73.0829 67.6649 73.2635 67.9468 73.2635 68.2618C73.2635 68.5768 73.0829 68.8587 72.7806 69.0162L48.7593 81.5265C48.1529 81.8423 47.4732 82 46.7937 82ZM29.3173 45.7115L3.73401 59.0356C3.66459 59.0717 3.65438 59.1291 3.65438 59.16C3.65438 59.1909 3.66489 59.2484 3.73401 59.2845L45.2317 80.8968C46.1954 81.3988 47.3923 81.3988 48.3558 80.8968L72.377 68.3865C72.4461 68.3504 72.4566 68.2929 72.4566 68.262C72.4566 68.2311 72.4461 68.1737 72.377 68.1376L29.3173 45.7115Z" fill="url(#paint0_linear_1457_5339)"/>
<path d="M29.2638 35.9407L35.045 5.0006L34.5801 4.82413L35.2785 4.46278L35.2773 4.46658C35.4128 4.38525 35.6045 4.39013 35.8155 4.50019L82.0194 28.5636C82.3989 28.7612 82.6859 29.2679 82.6192 29.6222L76.7926 60.8084C76.762 60.9711 76.673 61.0787 76.5492 61.1259L76.5498 61.1261L75.8662 61.4823L75.7487 60.9068L75.7877 60.9174L29.8639 36.9996C29.4843 36.802 29.1974 36.295 29.2638 35.9407Z" fill="url(#paint1_linear_1457_5339)"/>
<path d="M81.7625 29.4093L82.5222 29.1063C82.6076 29.2817 82.6493 29.4663 82.6199 29.6221L76.7927 60.8084C76.762 60.971 76.6731 61.0787 76.5493 61.1258L76.5499 61.1261L75.8662 61.4823L75.7487 60.9068L75.7878 60.9174L73.4639 59.707L81.7625 29.4093Z" fill="url(#paint2_linear_1457_5339)"/>
<path d="M29.1391 37.3747L75.343 61.4381C75.6997 61.6238 76.0053 61.5167 76.0678 61.1836L81.895 29.9973C81.9617 29.643 81.6744 29.1361 81.2952 28.9385L35.091 4.87506C34.7343 4.68937 34.4289 4.79672 34.3661 5.12987L28.539 36.3159C28.4722 36.6702 28.7595 37.1771 29.1391 37.3747Z" fill="#242993"/>
<g opacity="0.51">
<path opacity="0.51" d="M35.695 6.86566L80.232 30.0611L74.7092 59.4319L30.202 36.2522L35.695 6.86566Z" fill="#4553C7"/>
</g>
<path d="M0.0951233 52.1393L2.6167 53.3272L27.9007 40.159C28.3238 39.9386 29.0624 39.9662 29.5511 40.2208L73.1589 62.932C73.5763 62.7214 75.4788 61.896 75.4788 61.896L74.556 64.0654C74.556 64.0654 74.553 64.0632 74.5524 64.0627C74.5142 64.1592 74.4322 64.2492 74.2942 64.321L47.6652 78.1897C47.2421 78.4101 46.5031 78.3824 46.0148 78.1279L1.39002 54.8872C1.18928 54.7829 1.06667 54.6563 1.01558 54.5283L1.01228 54.5305L0.0951233 52.1393Z" fill="url(#paint3_linear_1457_5339)"/>
<path d="M0.484896 52.5134L46.2191 76.332C46.7198 76.5928 47.4771 76.621 47.9104 76.3951L75.2018 62.1817C75.6354 61.9559 75.581 61.5614 75.0804 61.3007L29.3461 37.4823C28.8455 37.2215 28.0882 37.1933 27.6549 37.4192L0.36349 51.6324C-0.0701451 51.8582 -0.0157529 52.2526 0.484896 52.5134Z" fill="url(#paint4_linear_1457_5339)"/>
<path d="M60.0137 71.1796V70.7272C60.0137 70.6844 59.9849 70.6646 59.9491 70.6833L58.18 71.6047C58.1443 71.6234 58.1154 71.673 58.1154 71.7158V72.1682C58.1154 72.2111 58.1443 72.2308 58.18 72.2121L59.9491 71.2908C59.9849 71.2723 60.0137 71.2224 60.0137 71.1796Z" fill="#2859CB"/>
<path d="M57.3683 72.5575V72.1051C57.3683 72.0622 57.3395 72.0424 57.3037 72.0611L55.5346 72.9825C55.4989 73.001 55.47 73.0508 55.47 73.0937V73.5461C55.47 73.5889 55.4989 73.6087 55.5346 73.59L57.3037 72.6686C57.3395 72.6502 57.3683 72.6003 57.3683 72.5575Z" fill="#2859CB"/>
<path d="M68.0866 60.8504L30.0815 41.0573C29.8281 40.9253 29.5159 40.9256 29.2626 41.0576L15.7291 48.1208C15.5347 48.2222 15.535 48.4754 15.7294 48.5765L53.7168 68.3606C53.9699 68.4924 54.2818 68.4924 54.5348 68.3606L68.0866 61.3064C68.281 61.2052 68.2813 60.9518 68.0866 60.8504Z" fill="#ADC8FF"/>
<path d="M68.0866 61.3064L67.9505 61.3771L30.0815 41.6548C29.8282 41.5228 29.5159 41.523 29.2626 41.655L15.8653 48.6472L15.7294 48.5765C15.535 48.4751 15.535 48.2222 15.7291 48.1208L29.2626 41.0576C29.5159 40.9256 29.8282 40.9253 30.0815 41.0573L68.0866 60.8507C68.2813 60.9518 68.281 61.2052 68.0866 61.3064Z" fill="#91AFFF"/>
<path d="M28.2415 42.8464L61.2542 60.0396L62.7219 59.2751L29.7091 42.082L28.2415 42.8464Z" fill="#242993"/>
<path d="M24.6429 44.7206L55.6073 60.8474L57.0753 60.0827L26.1105 43.9562L24.6429 44.7206Z" fill="#242993"/>
<path d="M22.2989 45.9413L58.7564 64.9288L60.2244 64.1643L23.7669 45.1769L22.2989 45.9413Z" fill="#242993"/>
<path d="M19.9549 47.162L56.4127 66.1494L57.8804 65.385L21.4229 46.3975L19.9549 47.162Z" fill="#242993"/>
<path d="M17.6112 48.3827L54.0687 67.3701L55.5367 66.6057L19.0789 47.6182L17.6112 48.3827Z" fill="#242993"/>
<path d="M63.249 61.0787L64.7167 61.8431L66.1847 61.0787L64.7167 60.3142L63.249 61.0787Z" fill="#242993"/>
<path d="M58.0715 62.1304L61.1181 63.7173L62.5861 62.9526L59.5392 61.366L58.0715 62.1304Z" fill="#242993"/>
<path d="M28.6183 65.6404L18.3706 60.3034C17.97 60.0946 17.97 59.7566 18.3706 59.5479L25.3782 55.8983C25.7788 55.6896 26.4282 55.6899 26.8288 55.8983L37.0764 61.2353C37.477 61.4441 37.477 61.7821 37.0764 61.9908L30.0689 65.6404C29.668 65.8491 29.0186 65.8491 28.6183 65.6404Z" fill="url(#paint5_linear_1457_5339)"/>
<path d="M37.0761 61.5447L26.8285 56.2077C26.4279 55.9989 25.7785 55.9989 25.3779 56.2077L18.3703 59.8572C18.2468 59.9217 18.166 59.999 18.1185 60.0803C18.0124 59.8979 18.0932 59.6924 18.3703 59.5482L25.3779 55.8986C25.7785 55.6899 26.4279 55.6902 26.8285 55.8986L37.0761 61.2356C37.3532 61.3798 37.4337 61.5853 37.328 61.768C37.2805 61.6862 37.1996 61.6089 37.0761 61.5447Z" fill="#91AFFF"/>
<g opacity="0.11">
<g opacity="0.11">
<path opacity="0.11" d="M29.3011 37.4333L75.0353 61.2519C75.536 61.5127 76.2932 61.5409 76.7266 61.3151L104.018 47.1016C104.452 46.8758 104.397 46.4814 103.897 46.2206L58.1623 22.402C57.6616 22.1412 56.9044 22.113 56.471 22.3388L29.1797 36.5523C28.746 36.7781 28.8004 37.1725 29.3011 37.4333Z" fill="url(#paint6_linear_1457_5339)"/>
<path opacity="0.11" d="M75.1714 41.7037L64.9238 36.3667C64.5232 36.1579 64.5232 35.8199 64.9238 35.6112L71.9313 31.9616C72.3319 31.7529 72.9813 31.7532 73.3816 31.9616L83.6293 37.2986C84.0298 37.5074 84.0298 37.8454 83.6293 38.0541L76.6217 41.7037C76.2214 41.9121 75.572 41.9121 75.1714 41.7037Z" fill="url(#paint7_linear_1457_5339)"/>
<path opacity="0.11" d="M83.6293 37.6077L73.3816 32.2707C72.981 32.0619 72.3316 32.0619 71.9313 32.2707L64.9237 35.9202C64.8002 35.9847 64.7194 36.062 64.6719 36.1433C64.5658 35.9608 64.6467 35.7554 64.9237 35.6112L71.9313 31.9616C72.3319 31.7529 72.9813 31.7532 73.3816 31.9616L83.6293 37.2986C83.906 37.4428 83.9869 37.6483 83.8811 37.831C83.8336 37.7494 83.7528 37.6722 83.6293 37.6077Z" fill="#91AFFF"/>
<g opacity="0.11">
<path opacity="0.11" d="M88.1342 50.0442L50.1291 30.2508C49.8757 30.1188 49.5635 30.119 49.3102 30.2511L35.7767 37.3143C35.5823 37.4157 35.5826 37.6689 35.777 37.77L73.7644 57.5541C74.0174 57.6859 74.3294 57.6859 74.5824 57.5541L88.1342 50.4998C88.3286 50.3987 88.3286 50.1453 88.1342 50.0442Z" fill="#ADC8FF"/>
<path opacity="0.11" d="M88.1344 50.5006L87.9983 50.5713L50.1293 30.849C49.876 30.7169 49.5638 30.7172 49.3104 30.8492L35.9131 37.8414L35.7773 37.7707C35.5829 37.6693 35.5829 37.4164 35.777 37.315L49.3104 30.2518C49.5638 30.1195 49.876 30.1195 50.1293 30.2515L88.1344 50.0449C88.3289 50.1457 88.3289 50.3992 88.1344 50.5006Z" fill="#91AFFF"/>
<g opacity="0.11">
<path opacity="0.11" d="M39.3185 36.8325L72.4275 54.0759L71.116 54.759L38.0068 37.5156L39.3185 36.8325Z" fill="#242993"/>
<path opacity="0.11" d="M42.8068 35.0158L74.2765 51.4052L72.9651 52.0884L41.4954 35.6987L42.8068 35.0158Z" fill="#242993"/>
<path opacity="0.11" d="M76.6265 52.6292L79.5655 54.1599L78.254 54.8431L75.3151 53.3123L76.6265 52.6292Z" fill="#242993"/>
<path opacity="0.11" d="M74.0304 54.9108L76.0771 55.9767L74.7654 56.6598L72.719 55.5939L74.0304 54.9108Z" fill="#242993"/>
<path opacity="0.11" d="M44.9928 33.8773L81.7514 53.0214L80.44 53.7045L43.6813 34.5604L44.9928 33.8773Z" fill="#242993"/>
<path opacity="0.11" d="M47.1787 32.7388L83.9373 51.8832L82.6259 52.566L45.8672 33.4219L47.1787 32.7388Z" fill="#242993"/>
<path opacity="0.11" d="M49.3646 31.6005L86.1232 50.7446L84.8117 51.4277L48.0531 32.2836L49.3646 31.6005Z" fill="#242993"/>
</g>
</g>
</g>
</g>
<path d="M76.115 31.7995L76.9931 32.3061L77.0998 31.7181L76.2214 31.2115L76.115 31.7995Z" fill="#42FFFF"/>
<path d="M75.395 35.7764L76.2734 36.2831L76.8963 32.8423L76.018 32.3356L75.395 35.7764Z" fill="#42FFFF"/>
<path d="M75.0506 37.6786L75.929 38.185L76.1763 36.819L75.2979 36.3126L75.0506 37.6786Z" fill="#42FFFF"/>
<path d="M74.6939 39.6496L75.572 40.1562L75.8193 38.7903L74.9412 38.2836L74.6939 39.6496Z" fill="#42FFFF"/>
<path d="M74.461 32.9461L75.3391 33.4527L75.5864 32.0868L74.708 31.5801L74.461 32.9461Z" fill="#42FFFF"/>
<path d="M73.9883 35.5571L74.8664 36.0638L75.2297 34.0578L74.3513 33.5511L73.9883 35.5571Z" fill="#42FFFF"/>
<path d="M73.5532 37.9605L74.4316 38.4672L74.7429 36.7466L73.8645 36.24L73.5532 37.9605Z" fill="#42FFFF"/>
<path d="M74.3369 41.6209L75.2153 42.1276L75.4626 40.7616L74.5842 40.2549L74.3369 41.6209Z" fill="#42FFFF"/>
<path d="M74.8051 31.0439L75.6835 31.5506L75.7899 30.9626L74.9118 30.4562L74.8051 31.0439Z" fill="#42FFFF"/>
<path d="M73.3362 43.156L74.8691 44.0403L74.9722 43.4697L73.4393 42.5854L73.3362 43.156Z" fill="#42FFFF"/>
<path opacity="0.5" d="M43.7114 2.75633L39.8769 0.759563V0L43.7114 1.99677V2.75633Z" fill="#42FFFF"/>
<path opacity="0.5" d="M45.6776 3.78047L44.2971 3.06156V2.302L45.6776 3.0209V3.78047Z" fill="#42FFFF"/>
<path opacity="0.5" d="M47.2015 4.57416L46.2633 4.08567V3.32611L47.2015 3.81459V4.57416Z" fill="#42FFFF"/>
<path opacity="0.5" d="M41.966 3.58284L39.8769 2.49473V1.73517L41.966 2.82328V3.58284Z" fill="#42FFFF"/>
<path opacity="0.5" d="M45.1124 5.22124L42.552 3.8878V3.12823L45.1124 4.46167V5.22124Z" fill="#42FFFF"/>
<path opacity="0.5" d="M46.6359 6.01498L45.6981 5.52623V4.76666L46.6359 5.25515V6.01498Z" fill="#42FFFF"/>
<path opacity="0.5" d="M48.0862 6.77017L47.148 6.28141V5.52185L48.0862 6.01061V6.77017Z" fill="#42FFFF"/>
<path d="M41.3885 5.01711L39.8769 4.2299V3.47034L41.3885 4.25755V5.01711Z" fill="#42FFFF"/>
<path d="M42.491 5.59131L41.9744 5.32212V4.56256L42.491 4.83174V5.59131Z" fill="#42FFFF"/>
<path opacity="0.5" d="M44.0149 6.3847L43.0767 5.89622V5.13666L44.0149 5.62514V6.3847Z" fill="#42FFFF"/>
<path opacity="0.5" d="M45.4565 8.87052L39.8769 5.96482V5.20526L45.4565 8.11095V8.87052Z" fill="#42FFFF"/>
<path opacity="0.5" d="M47.4227 9.89466L46.0421 9.17576V8.4162L47.4227 9.1351V9.89466Z" fill="#42FFFF"/>
<path opacity="0.5" d="M41.3885 8.48721L39.8769 7.69999V6.94043L41.3885 7.72764V8.48721Z" fill="#42FFFF"/>
<path opacity="0.5" d="M44.936 10.3349L41.9744 8.79246V8.0329L44.936 9.57534V10.3349Z" fill="#42FFFF"/>
<path opacity="0.5" d="M46.4598 11.1284L45.522 10.6399V9.88031L46.4598 10.3688V11.1284Z" fill="#42FFFF"/>
<path opacity="0.5" d="M42.9697 11.0459L39.8769 9.43516V8.6756L42.9697 10.2863V11.0459Z" fill="#42FFFF"/>
<path d="M45.7921 12.5157L43.5557 11.3509V10.5913L45.7921 11.7561V12.5157Z" fill="#42FFFF"/>
<path opacity="0.5" d="M47.8897 13.6081L46.3781 12.8209V12.0613L47.8897 12.8486V13.6081Z" fill="#42FFFF"/>
<path opacity="0.5" d="M40.9215 11.7144L39.8769 11.1703V10.4108L40.9215 10.9546V11.7144Z" fill="#42FFFF"/>
<path opacity="0.5" d="M42.888 12.7383L41.5074 12.0194V11.2598L42.888 11.9787V12.7383Z" fill="#42FFFF"/>
<path opacity="0.5" d="M45.6981 14.2018L43.4737 13.0435V12.2839L45.6981 13.4423V14.2018Z" fill="#42FFFF"/>
<path opacity="0.5" d="M43.0767 14.5718L39.8769 12.9053V12.1457L43.0767 13.8123V14.5718Z" fill="#42FFFF"/>
<path opacity="0.5" d="M46.6606 16.4382L43.6627 14.8768V14.1172L46.6606 15.6787V16.4382Z" fill="#42FFFF"/>
<path d="M48.1845 17.2319L47.2466 16.7434V15.9839L48.1845 16.4724V17.2319Z" fill="#42FFFF"/>
<path opacity="0.5" d="M49.647 17.9937L48.7089 17.5052V16.7454L49.647 17.2341V17.9937Z" fill="#42FFFF"/>
<path opacity="0.5" d="M41.7941 15.6388L39.8769 14.6404V13.8809L41.7941 14.8792V15.6388Z" fill="#42FFFF"/>
<path d="M49.812 5.93364L52.4706 7.31831V6.55874L49.812 5.17407V5.93364Z" fill="#42FFFF"/>
<path opacity="0.5" d="M50.3812 7.96537L52.4706 9.05348V8.29392L50.3812 7.20581V7.96537Z" fill="#42FFFF"/>
<path opacity="0.5" d="M50.9591 10.0015L52.4706 10.7887V10.0291L50.9591 9.24164V10.0015Z" fill="#42FFFF"/>
<path opacity="0.5" d="M50.2718 11.3786L52.4706 12.5236V11.7641L50.2718 10.619V11.3786Z" fill="#42FFFF"/>
<path opacity="0.5" d="M50.9591 13.4715L52.4706 14.2587V13.4992L50.9591 12.712V13.4715Z" fill="#42FFFF"/>
<path opacity="0.5" d="M50.5534 14.9955L52.4706 15.9939V15.2343L50.5534 14.236V14.9955Z" fill="#42FFFF"/>
<path opacity="0.5" d="M51.4261 17.185L52.4706 17.7291V16.9695L51.4261 16.4255V17.185Z" fill="#42FFFF"/>
<path opacity="0.5" d="M50.4464 18.4101L52.4706 19.464V18.7047L50.4464 17.6505V18.4101Z" fill="#42FFFF"/>
<path opacity="0.5" d="M50.5534 20.2008L52.4706 21.1992V20.4396L50.5534 19.4412V20.2008Z" fill="#42FFFF"/>
<path opacity="0.5" d="M43.1951 16.3685L42.3798 15.944V15.1844L43.1951 15.609V16.3685Z" fill="#42FFFF"/>
<path opacity="0.5" d="M45.616 17.6293L43.7808 16.6735V15.9139L45.616 16.8698V17.6293Z" fill="#42FFFF"/>
<path opacity="0.5" d="M58.5797 10.4704L54.7455 8.47337V7.71381L58.5797 9.71084V10.4704Z" fill="#42FFFF"/>
<path opacity="0.5" d="M60.5459 11.4943L59.1654 10.7754V10.0158L60.5459 10.7347V11.4943Z" fill="#42FFFF"/>
<path d="M62.0698 12.288L61.1319 11.7995V11.04L62.0698 11.5285V12.288Z" fill="#42FFFF"/>
<path opacity="0.5" d="M56.8346 11.2966L54.7455 10.2085V9.44897L56.8346 10.5371V11.2966Z" fill="#42FFFF"/>
<path opacity="0.5" d="M59.9807 12.9351L57.4203 11.6017V10.8421L59.9807 12.1755V12.9351Z" fill="#42FFFF"/>
<path d="M61.5046 13.7288L60.5664 13.24V12.4805L61.5046 12.9692V13.7288Z" fill="#42FFFF"/>
<path opacity="0.5" d="M62.9548 14.484L62.0166 13.9956V13.2357L62.9548 13.7245V14.484Z" fill="#42FFFF"/>
<path opacity="0.5" d="M56.257 12.731L54.7455 11.9438V11.1842L56.257 11.9714V12.731Z" fill="#42FFFF"/>
<path opacity="0.5" d="M57.3596 13.3051L56.8427 13.0359V12.2764L57.3596 12.5455V13.3051Z" fill="#42FFFF"/>
<path opacity="0.5" d="M58.8835 14.0985L57.9453 13.61V12.8505L58.8835 13.3392V14.0985Z" fill="#42FFFF"/>
<path opacity="0.5" d="M60.3248 16.5846L54.7455 13.6786V12.9191L60.3248 15.825V16.5846Z" fill="#42FFFF"/>
<path opacity="0.5" d="M62.291 17.6085L60.9108 16.8896V16.13L62.291 16.8489V17.6085Z" fill="#42FFFF"/>
<path opacity="0.5" d="M56.257 16.201L54.7455 15.4138V14.6542L56.257 15.4415V16.201Z" fill="#42FFFF"/>
<path opacity="0.5" d="M59.8046 18.0487L56.8427 16.5063V15.7467L59.8046 17.2891V18.0487Z" fill="#42FFFF"/>
<path opacity="0.5" d="M61.3284 18.8424L60.3903 18.3537V17.5941L61.3284 18.0829V18.8424Z" fill="#42FFFF"/>
<path d="M57.8383 18.7597L54.7455 17.149V16.3894L57.8383 18.0002V18.7597Z" fill="#42FFFF"/>
<path opacity="0.5" d="M60.6607 20.2298L58.424 19.0647V18.3052L60.6607 19.4703V20.2298Z" fill="#42FFFF"/>
<path opacity="0.5" d="M62.758 21.322L61.2464 20.5348V19.7752L62.758 20.5624V21.322Z" fill="#42FFFF"/>
<path opacity="0.5" d="M55.7901 19.4282L54.7455 18.8841V18.1246L55.7901 18.6686V19.4282Z" fill="#42FFFF"/>
<path opacity="0.5" d="M57.7563 20.4521L56.3757 19.7332V18.9736L57.7563 19.6925V20.4521Z" fill="#42FFFF"/>
<path d="M60.5663 21.9156L58.3423 20.7573V19.9977L60.5663 21.1561V21.9156Z" fill="#42FFFF"/>
<path opacity="0.5" d="M57.9453 22.2857L54.7455 20.6191V19.8595L57.9453 21.5261V22.2857Z" fill="#42FFFF"/>
<path opacity="0.5" d="M61.5292 24.152L58.531 22.5909V21.8313L61.5292 23.3927V24.152Z" fill="#42FFFF"/>
<path opacity="0.5" d="M63.0531 24.9457L62.1149 24.4573V23.6977L63.0531 24.1862V24.9457Z" fill="#42FFFF"/>
<path opacity="0.5" d="M64.5153 25.7075L63.5775 25.219V24.4595L64.5153 24.948V25.7075Z" fill="#42FFFF"/>
<path opacity="0.5" d="M56.6627 23.3527L54.7455 22.3543V21.5947L56.6627 22.5931V23.3527Z" fill="#42FFFF"/>
<path d="M64.6803 13.6478L67.339 15.0322V14.2726L64.6803 12.8879V13.6478Z" fill="#42FFFF"/>
<path opacity="0.5" d="M65.2498 15.6792L67.339 16.7673V16.0077L65.2498 14.9196V15.6792Z" fill="#42FFFF"/>
<path opacity="0.5" d="M65.8274 17.7153L67.339 18.5025V17.7429L65.8274 16.9557V17.7153Z" fill="#42FFFF"/>
<path opacity="0.5" d="M65.1404 19.0923L67.339 20.2376V19.4781L65.1404 18.3328V19.0923Z" fill="#42FFFF"/>
<path opacity="0.5" d="M65.8274 21.1853L67.339 21.9726V21.213L65.8274 20.4258V21.1853Z" fill="#42FFFF"/>
<path opacity="0.5" d="M65.422 22.7094L67.3389 23.7078V22.9482L65.422 21.9498V22.7094Z" fill="#42FFFF"/>
<path opacity="0.5" d="M66.2944 24.8988L67.3389 25.4429V24.6833L66.2944 24.1393V24.8988Z" fill="#42FFFF"/>
<path opacity="0.5" d="M65.315 26.1239L67.3389 27.1781V26.4185L65.315 25.3643V26.1239Z" fill="#42FFFF"/>
<path opacity="0.5" d="M65.422 27.9146L67.3389 28.913V28.1534L65.422 27.155V27.9146Z" fill="#42FFFF"/>
<path d="M58.0637 24.0824L57.2484 23.6579V22.8983L58.0637 23.3228V24.0824Z" fill="#42FFFF"/>
<path opacity="0.5" d="M60.4846 25.3432L58.6494 24.3876V23.6278L60.4846 24.5836V25.3432Z" fill="#42FFFF"/>
<path opacity="0.5" d="M43.7114 18.3827L39.8769 16.3857V15.6261L43.7114 17.6229V18.3827Z" fill="#42FFFF"/>
<path opacity="0.5" d="M45.6776 19.4066L44.2971 18.6877V17.9281L45.6776 18.647V19.4066Z" fill="#42FFFF"/>
<path opacity="0.5" d="M47.2015 20.2003L46.2633 19.7118V18.9522L47.2015 19.4407V20.2003Z" fill="#42FFFF"/>
<path opacity="0.5" d="M41.966 19.2089L39.8769 18.1208V17.3613L41.966 18.4494V19.2089Z" fill="#42FFFF"/>
<path opacity="0.5" d="M45.1124 20.8473L42.552 19.5139V18.7543L45.1124 20.0878V20.8473Z" fill="#42FFFF"/>
<path opacity="0.5" d="M46.6359 21.641L45.6981 21.1523V20.3927L46.6359 20.8815V21.641Z" fill="#42FFFF"/>
<path opacity="0.5" d="M48.0862 22.3963L47.148 21.9075V21.1479L48.0862 21.6367V22.3963Z" fill="#42FFFF"/>
<path opacity="0.5" d="M41.3885 20.6432L39.8769 19.856V19.0964L41.3885 19.8836V20.6432Z" fill="#42FFFF"/>
<path opacity="0.5" d="M42.491 21.2173L41.9744 20.9482V20.1886L42.491 20.4578V21.2173Z" fill="#42FFFF"/>
<path opacity="0.5" d="M44.0149 22.0108L43.0767 21.5223V20.7628L44.0149 21.2512V22.0108Z" fill="#42FFFF"/>
<path opacity="0.5" d="M45.4565 24.4968L39.8769 21.5909V20.8313L45.4565 23.737V24.4968Z" fill="#42FFFF"/>
<path opacity="0.5" d="M47.4227 25.5207L46.0421 24.8018V24.0422L47.4227 24.7611V25.5207Z" fill="#42FFFF"/>
<path opacity="0.5" d="M41.3885 24.1132L39.8769 23.326V22.5665L41.3885 23.3537V24.1132Z" fill="#42FFFF"/>
<path opacity="0.5" d="M44.936 25.9609L41.9744 24.4185V23.6589L44.936 25.2014V25.9609Z" fill="#42FFFF"/>
<path opacity="0.5" d="M46.4598 26.7547L45.522 26.2659V25.5063L46.4598 25.9951V26.7547Z" fill="#42FFFF"/>
<path opacity="0.5" d="M42.9697 26.672L39.8769 25.0613V24.3017L42.9697 25.9124V26.672Z" fill="#42FFFF"/>
<path opacity="0.5" d="M45.7921 28.1418L43.5557 26.977V26.2174L45.7921 27.3822V28.1418Z" fill="#42FFFF"/>
<path opacity="0.5" d="M47.8897 29.2342L46.3781 28.447V27.6874L47.8897 28.4747V29.2342Z" fill="#42FFFF"/>
<path opacity="0.5" d="M40.9215 27.3405L39.8769 26.7964V26.0369L40.9215 26.5806V27.3405Z" fill="#42FFFF"/>
<path opacity="0.5" d="M42.888 28.3643L41.5074 27.6454V26.8859L42.888 27.6048V28.3643Z" fill="#42FFFF"/>
<path opacity="0.5" d="M45.6981 29.8279L43.4737 28.6696V27.91L45.6981 29.0684V29.8279Z" fill="#42FFFF"/>
<path opacity="0.5" d="M43.0767 30.1979L39.8769 28.5314V27.7718L43.0767 29.4384V30.1979Z" fill="#42FFFF"/>
<path opacity="0.5" d="M46.6606 32.0646L43.6627 30.5029V29.7433L46.6606 31.3048V32.0646Z" fill="#42FFFF"/>
<path opacity="0.5" d="M48.1845 32.858L47.2466 32.3695V31.6099L48.1845 32.0984V32.858Z" fill="#42FFFF"/>
<path opacity="0.5" d="M49.647 33.6198L48.7089 33.1313V32.3717L49.647 32.8602V33.6198Z" fill="#42FFFF"/>
<path opacity="0.5" d="M41.7941 31.2649L39.8769 30.2665V29.507L41.7941 30.5053V31.2649Z" fill="#42FFFF"/>
<path opacity="0.5" d="M49.812 21.5597L52.4706 22.9444V22.1848L49.812 20.8002V21.5597Z" fill="#42FFFF"/>
<path opacity="0.5" d="M50.3812 23.5914L52.4706 24.6795V23.92L50.3812 22.8318V23.5914Z" fill="#42FFFF"/>
<path opacity="0.5" d="M50.9591 25.6275L52.4706 26.4148V25.6552L50.9591 24.868V25.6275Z" fill="#42FFFF"/>
<path opacity="0.5" d="M50.2718 27.0046L52.4706 28.1497V27.3901L50.2718 26.2451V27.0046Z" fill="#42FFFF"/>
<path opacity="0.5" d="M50.9591 29.0976L52.4706 29.8848V29.1252L50.9591 28.338V29.0976Z" fill="#42FFFF"/>
<path opacity="0.5" d="M50.5534 30.6216L52.4706 31.62V30.8604L50.5534 29.8621V30.6216Z" fill="#42FFFF"/>
<path opacity="0.5" d="M51.4261 32.8111L52.4706 33.3552V32.5956L51.4261 32.0516V32.8111Z" fill="#42FFFF"/>
<path opacity="0.5" d="M50.4464 34.0361L52.4706 35.0903V34.3308L50.4464 33.2766V34.0361Z" fill="#42FFFF"/>
<path opacity="0.5" d="M50.5534 35.8269L52.4706 36.8253V36.0657L50.5534 35.0673V35.8269Z" fill="#42FFFF"/>
<path opacity="0.5" d="M43.1951 31.9946L42.3798 31.5701V30.8105L43.1951 31.2351V31.9946Z" fill="#42FFFF"/>
<path opacity="0.5" d="M45.616 33.2554L43.7808 32.2996V31.5403L45.616 32.4958V33.2554Z" fill="#42FFFF"/>
<path opacity="0.5" d="M47.1342 39.092L44.0374 37.479V36.7195L47.1342 38.3324V39.092Z" fill="#42FFFF"/>
<path opacity="0.5" d="M49.2552 40.1966L48.0354 39.5615V38.8019L49.2552 39.4371V40.1966Z" fill="#42FFFF"/>
<path opacity="0.5" d="M58.5797 26.0965L54.7455 24.0995V23.3399L58.5797 25.3369V26.0965Z" fill="#42FFFF"/>
<path opacity="0.5" d="M60.5459 27.1204L59.1654 26.4015V25.6419L60.5459 26.3608V27.1204Z" fill="#42FFFF"/>
<path opacity="0.5" d="M62.0698 27.9141L61.1319 27.4256V26.666L62.0698 27.1545V27.9141Z" fill="#42FFFF"/>
<path opacity="0.5" d="M56.8346 26.9227L54.7455 25.8346V25.0751L56.8346 26.1632V26.9227Z" fill="#42FFFF"/>
<path opacity="0.5" d="M59.9807 28.5611L57.4203 27.2277V26.4681L59.9807 27.8016V28.5611Z" fill="#42FFFF"/>
<path opacity="0.5" d="M61.5046 29.3549L60.5664 28.8664V28.1068L61.5046 28.5953V29.3549Z" fill="#42FFFF"/>
<path opacity="0.5" d="M62.9548 30.1101L62.0166 29.6214V28.8618L62.9548 29.3506V30.1101Z" fill="#42FFFF"/>
<path opacity="0.5" d="M56.257 28.357L54.7455 27.5698V26.8102L56.257 27.5975V28.357Z" fill="#42FFFF"/>
<path opacity="0.5" d="M57.3596 28.9312L56.8427 28.662V27.9024L57.3596 28.1716V28.9312Z" fill="#42FFFF"/>
<path opacity="0.5" d="M58.8835 29.7249L57.9453 29.2361V28.4766L58.8835 28.9653V29.7249Z" fill="#42FFFF"/>
<path opacity="0.5" d="M60.3248 32.2107L54.7455 29.3047V28.5452L60.3248 31.4511V32.2107Z" fill="#42FFFF"/>
<path opacity="0.5" d="M62.291 33.2346L60.9108 32.5157V31.7561L62.291 32.475V33.2346Z" fill="#42FFFF"/>
<path opacity="0.5" d="M56.257 31.8271L54.7455 31.0399V30.2803L56.257 31.0675V31.8271Z" fill="#42FFFF"/>
<path opacity="0.5" d="M59.8046 33.6747L56.8427 32.1323V31.3727L59.8046 32.9152V33.6747Z" fill="#42FFFF"/>
<path opacity="0.5" d="M61.3284 34.4685L60.3903 33.9798V33.2202L61.3284 33.709V34.4685Z" fill="#42FFFF"/>
<path opacity="0.5" d="M57.8383 34.3858L54.7455 32.7751V32.0155L57.8383 33.6263V34.3858Z" fill="#42FFFF"/>
<path opacity="0.5" d="M60.6607 35.8559L58.424 34.6908V33.9312L60.6607 35.0963V35.8559Z" fill="#42FFFF"/>
<path opacity="0.5" d="M62.758 36.948L61.2464 36.1608V35.4012L62.758 36.1885V36.948Z" fill="#42FFFF"/>
<path opacity="0.5" d="M55.7901 35.0543L54.7455 34.5102V33.7507L55.7901 34.2947V35.0543Z" fill="#42FFFF"/>
<path opacity="0.5" d="M57.7563 36.0781L56.3757 35.3592V34.5997L57.7563 35.3186V36.0781Z" fill="#42FFFF"/>
<path opacity="0.5" d="M60.5663 37.5417L58.3423 36.3834V35.6238L60.5663 36.7822V37.5417Z" fill="#42FFFF"/>
<path opacity="0.5" d="M57.9453 37.9117L54.7455 36.2454V35.4858L57.9453 37.1522V37.9117Z" fill="#42FFFF"/>
<path opacity="0.5" d="M61.5292 39.7784L58.531 38.217V37.4572L61.5292 39.0188V39.7784Z" fill="#42FFFF"/>
<path opacity="0.5" d="M63.0531 40.5718L62.1149 40.0834V39.3238L63.0531 39.8123V40.5718Z" fill="#42FFFF"/>
<path opacity="0.5" d="M64.5153 41.3336L63.5775 40.8451V40.0855L64.5153 40.574V41.3336Z" fill="#42FFFF"/>
<path opacity="0.5" d="M56.6627 38.979L54.7455 37.9803V37.2208L56.6627 38.2194V38.979Z" fill="#42FFFF"/>
<path opacity="0.5" d="M64.6803 29.2738L67.339 30.6582V29.8986L64.6803 28.5142V29.2738Z" fill="#42FFFF"/>
<path opacity="0.5" d="M65.2498 31.3053L67.339 32.3934V31.6338L65.2498 30.5457V31.3053Z" fill="#42FFFF"/>
<path opacity="0.5" d="M65.8274 33.3414L67.339 34.1286V33.369L65.8274 32.5818V33.3414Z" fill="#42FFFF"/>
<path opacity="0.5" d="M65.1404 34.7184L67.339 35.8637V35.1042L65.1404 33.9589V34.7184Z" fill="#42FFFF"/>
<path opacity="0.5" d="M65.8274 36.8114L67.339 37.5987V36.8391L65.8274 36.0519V36.8114Z" fill="#42FFFF"/>
<path opacity="0.5" d="M65.422 38.3354L67.3389 39.3338V38.5742L65.422 37.5759V38.3354Z" fill="#42FFFF"/>
<path opacity="0.5" d="M66.2944 40.5249L67.3389 41.069V40.3094L66.2944 39.7654V40.5249Z" fill="#42FFFF"/>
<path opacity="0.5" d="M65.315 41.7499L67.3389 42.8041V42.0446L65.315 40.9904V41.7499Z" fill="#42FFFF"/>
<path opacity="0.5" d="M65.422 43.5407L67.3389 44.5391V43.7795L65.422 42.7811V43.5407Z" fill="#42FFFF"/>
<path opacity="0.5" d="M58.0637 39.7085L57.2484 39.284V38.5244L58.0637 38.9489V39.7085Z" fill="#42FFFF"/>
<path opacity="0.5" d="M60.4846 40.9695L58.6494 40.0137V39.2542L60.4846 40.21V40.9695Z" fill="#42FFFF"/>
<path opacity="0.5" d="M62.0028 46.8058L58.9058 45.1929V44.4333L62.0028 46.0463V46.8058Z" fill="#42FFFF"/>
<path opacity="0.5" d="M64.1238 47.9105L62.904 47.2754V46.5158L64.1238 47.1509V47.9105Z" fill="#42FFFF"/>
</g>
<defs>
<linearGradient id="paint0_linear_1457_5339" x1="73.2631" y1="63.4358" x2="2.84781" y2="63.4358" gradientUnits="userSpaceOnUse">
<stop stop-color="#42FFFF"/>
<stop offset="0.1507" stop-color="#43FAFF"/>
<stop offset="0.3285" stop-color="#45ECFF"/>
<stop offset="0.5199" stop-color="#49D4FF"/>
<stop offset="0.7209" stop-color="#4EB3FF"/>
<stop offset="0.9274" stop-color="#5489FF"/>
<stop offset="1" stop-color="#5778FF"/>
</linearGradient>
<linearGradient id="paint1_linear_1457_5339" x1="82.6296" y1="32.9464" x2="29.2542" y2="32.9464" gradientUnits="userSpaceOnUse">
<stop stop-color="#C0D6FF"/>
<stop offset="0.2978" stop-color="#C5DBFF"/>
<stop offset="0.6488" stop-color="#D3E9FF"/>
<stop offset="1" stop-color="#E9FFFF"/>
</linearGradient>
<linearGradient id="paint2_linear_1457_5339" x1="82.6293" y1="45.2942" x2="73.4642" y2="45.2942" gradientUnits="userSpaceOnUse">
<stop stop-color="#5778FF"/>
<stop offset="0.1779" stop-color="#5C7DFF"/>
<stop offset="0.3876" stop-color="#6A8AFF"/>
<stop offset="0.6134" stop-color="#82A0FF"/>
<stop offset="0.849" stop-color="#A3BEFF"/>
<stop offset="1" stop-color="#BCD5FF"/>
</linearGradient>
<linearGradient id="paint3_linear_1457_5339" x1="75.4785" y1="59.1745" x2="0.0950918" y2="59.1745" gradientUnits="userSpaceOnUse">
<stop stop-color="#5778FF"/>
<stop offset="0.1779" stop-color="#5C7DFF"/>
<stop offset="0.3876" stop-color="#6A8AFF"/>
<stop offset="0.6134" stop-color="#82A0FF"/>
<stop offset="0.849" stop-color="#A3BEFF"/>
<stop offset="1" stop-color="#BCD5FF"/>
</linearGradient>
<linearGradient id="paint4_linear_1457_5339" x1="50.1495" y1="56.9071" x2="-25.2741" y2="56.9071" gradientUnits="userSpaceOnUse">
<stop stop-color="#C0D6FF"/>
<stop offset="0.2978" stop-color="#C5DBFF"/>
<stop offset="0.6488" stop-color="#D3E9FF"/>
<stop offset="1" stop-color="#E9FFFF"/>
</linearGradient>
<linearGradient id="paint5_linear_1457_5339" x1="37.3765" y1="60.7695" x2="18.0702" y2="60.7695" gradientUnits="userSpaceOnUse">
<stop stop-color="#C0D6FF"/>
<stop offset="0.2978" stop-color="#C5DBFF"/>
<stop offset="0.6488" stop-color="#D3E9FF"/>
<stop offset="1" stop-color="#E9FFFF"/>
</linearGradient>
<linearGradient id="paint6_linear_1457_5339" x1="78.9656" y1="41.827" x2="3.54201" y2="41.827" gradientUnits="userSpaceOnUse">
<stop stop-color="#C0D6FF"/>
<stop offset="0.2978" stop-color="#C5DBFF"/>
<stop offset="0.6488" stop-color="#D3E9FF"/>
<stop offset="1" stop-color="#E9FFFF"/>
</linearGradient>
<linearGradient id="paint7_linear_1457_5339" x1="83.9297" y1="36.8326" x2="64.6234" y2="36.8326" gradientUnits="userSpaceOnUse">
<stop stop-color="#C0D6FF"/>
<stop offset="0.2978" stop-color="#C5DBFF"/>
<stop offset="0.6488" stop-color="#D3E9FF"/>
<stop offset="1" stop-color="#E9FFFF"/>
</linearGradient>
<clipPath id="clip0_1457_5339">
<rect width="87.7809" height="82" fill="white" transform="translate(0.0708008)"/>
</clipPath>
</defs>
</svg>
